<svg xmlns="http://www.w3.org/2000/svg" xmlns:xlink="http://www.w3.org/1999/xlink" width="86.944" height="73.659" viewBox="0 0 86.944 73.659"><defs><style>.a{fill:none;}.b{fill:#003b6e;}.c{clip-path:url(#a);}.d{fill:url(#b);}.e{clip-path:url(#c);}.f{fill:url(#d);}.g{clip-path:url(#e);}.h{fill:url(#f);}.i{clip-path:url(#g);}.j{fill:url(#h);}.k{clip-path:url(#i);}.l{fill:url(#j);}.m{clip-path:url(#k);}.n{fill:url(#l);}.o{clip-path:url(#m);}.p{fill:url(#n);}.q{clip-path:url(#o);}.r{fill:url(#p);}.s{fill:#f36a10;}.t{clip-path:url(#q);}.u{fill:url(#r);}.v{clip-path:url(#s);}.w{fill:url(#t);}.x{clip-path:url(#u);}.y{fill:url(#v);}.z{clip-path:url(#w);}.aa{fill:url(#x);}</style><clipPath id="a"><rect class="a" width="2.042" height="9.592"/></clipPath><linearGradient id="b" x1="-2.843" y1="8.627" x2="-2.82" y2="8.627" gradientUnits="objectBoundingBox"><stop offset="0" stop-color="#8c4119"/><stop offset="0.25" stop-color="#f29823"/><stop offset="0.736" stop-color="#f99c29"/><stop offset="1" stop-color="#8c4119"/></linearGradient><clipPath id="c"><path class="a" d="M171.976,304.79V312.5l-3.609-7.713h-2.959v9.592h1.84v-7.941l3.726,7.941h2.842V304.79Z" transform="translate(-165.407 -304.79)"/></clipPath><linearGradient id="d" x1="-4.05" y1="6.189" x2="-4.026" y2="6.189" xlink:href="#b"/><clipPath id="e"><path class="a" d="M215.007,305.315a6.617,6.617,0,0,0-.032,7.372,4.114,4.114,0,0,0,3.252,1.249,4.484,4.484,0,0,0,2.81-.778,2.97,2.97,0,0,0,1.106-2.26H220.21a1.683,1.683,0,0,1-.556,1.19,1.88,1.88,0,0,1-1.3.449,2.062,2.062,0,0,1-1.827-.875,4.806,4.806,0,0,1-.6-2.682,4.726,4.726,0,0,1,.608-2.65,2.041,2.041,0,0,1,1.8-.895,2.01,2.01,0,0,1,1.32.413,1.45,1.45,0,0,1,.533,1.1h1.892a2.752,2.752,0,0,0-1.083-2.149,4.39,4.39,0,0,0-2.741-.778,4.113,4.113,0,0,0-3.258,1.291" transform="translate(-213.869 -304.024)"/></clipPath><linearGradient id="f" x1="-3.207" y1="4.829" x2="-3.191" y2="4.829" xlink:href="#b"/><clipPath id="g"><path class="a" d="M262.383,311.649a4.72,4.72,0,0,1-.618-2.656,4.583,4.583,0,0,1,.624-2.614,2.256,2.256,0,0,1,3.609,0,4.582,4.582,0,0,1,.624,2.618,4.72,4.72,0,0,1-.618,2.656,2.26,2.26,0,0,1-3.622,0m-1.532-6.249a5.014,5.014,0,0,0-1.233,3.58,5.244,5.244,0,0,0,1.217,3.681,4.92,4.92,0,0,0,6.724,0,5.266,5.266,0,0,0,1.209-3.678,5.033,5.033,0,0,0-1.226-3.58,4.927,4.927,0,0,0-6.692,0" transform="translate(-259.619 -304.089)"/></clipPath><linearGradient id="h" x1="-3.781" y1="4.594" x2="-3.766" y2="4.594" xlink:href="#b"/><clipPath id="i"><path class="a" d="M319.343,304.79l-2,6.926-2.01-6.926H312.1v9.592h1.841v-8.11l2.5,8.11h1.795l2.51-8.11v8.11h1.9V304.79Z" transform="translate(-312.098 -304.79)"/></clipPath><linearGradient id="j" x1="-6.059" y1="6.186" x2="-6.04" y2="6.186" xlink:href="#b"/><clipPath id="k"><path class="a" d="M372.964,304.79v9.592h6.509v-1.6h-4.429V310.2h4.013V308.64h-4.013v-2.263h4.279V304.79Z" transform="translate(-372.964 -304.79)"/></clipPath><linearGradient id="l" x1="-6.387" y1="5.4" x2="-6.37" y2="5.4" xlink:href="#b"/><clipPath id="m"><rect class="a" width="85.789" height="0.375"/></clipPath><linearGradient id="n" x1="-0.349" y1="90.743" x2="-0.347" y2="90.743" gradientUnits="objectBoundingBox"><stop offset="0" stop-color="#cf7a20"/><stop offset="0.328" stop-color="#f99c29"/><stop offset="0.557" stop-color="#f29823"/><stop offset="1" stop-color="#8c4119"/></linearGradient><clipPath id="o"><rect class="a" width="54.275" height="0.375"/></clipPath><linearGradient id="p" x1="-1.133" y1="199.889" x2="-1.129" y2="199.889" xlink:href="#n"/><clipPath id="q"><path class="a" d="M426.184,119.744c.049-.8.084-1.61.15-2.414s.133-1.632.255-2.44c.137-.912.328-1.816.505-2.722a19.485,19.485,0,0,1,1.216-3.931,11.938,11.938,0,0,1,2.514-3.929,2.635,2.635,0,0,1,1.926-.906,2.374,2.374,0,0,1,1.531.672,8.988,8.988,0,0,1,2.07,2.849,11.368,11.368,0,0,1,.862,2.171,5.417,5.417,0,0,1-1.34,5.211,14.557,14.557,0,0,1-3.813,2.893c-1.043.6-2.125,1.133-3.217,1.636-.828.382-1.7.668-2.552,1l-.107-.088m10.278-25.1a8.586,8.586,0,0,0-3.571,1.974,17.9,17.9,0,0,0-3.2,3.666,18.59,18.59,0,0,0-1.981,3.639c-.449,1.162-.887,2.33-1.282,3.512a20.291,20.291,0,0,0-.595,2.273c-.241,1.152-.448,2.311-.644,3.471-.132.775-.245,1.554-.321,2.336-.105,1.068-.19,2.14-.242,3.213-.038.771-.007,1.546-.007,2.359a27.39,27.39,0,0,0,4.446-.885,46.858,46.858,0,0,0,4.516-1.483,35.956,35.956,0,0,0,3.847-1.9,10.6,10.6,0,0,0,4.452-4.623,16.145,16.145,0,0,0,1.639-6.453,18.856,18.856,0,0,0-.442-5.385,10.844,10.844,0,0,0-1.562-3.819,4.386,4.386,0,0,0-3.719-2.063,5.783,5.783,0,0,0-1.338.166" transform="translate(-424.611 -94.475)"/></clipPath><linearGradient id="r" x1="-4.558" y1="3.841" x2="-4.547" y2="3.841" gradientUnits="objectBoundingBox"><stop offset="0" stop-color="#8c4119"/><stop offset="0.443" stop-color="#f29823"/><stop offset="0.672" stop-color="#f99c29"/><stop offset="1" stop-color="#cf7a20"/></linearGradient><clipPath id="s"><path class="a" d="M360.044,148.958a24.968,24.968,0,0,1-4.177-2.048,4.865,4.865,0,0,1-2.214-2.749,5.417,5.417,0,0,1-.134-2.649,8.588,8.588,0,0,1,1.439-3.457,4.924,4.924,0,0,1,.524-.581,1.407,1.407,0,0,1,1.829-.055,7.924,7.924,0,0,1,1.864,2.1,12.516,12.516,0,0,1,1.692,3.766,22.269,22.269,0,0,1,.816,4.469c.034.477.085.953.125,1.43.009.1,0,.205,0,.394-.636-.222-1.206-.406-1.765-.619M351.022,131.9a5.039,5.039,0,0,0-1.8,2.651,9.824,9.824,0,0,0-.6,3.046,26.318,26.318,0,0,0,.059,3.183A10.37,10.37,0,0,0,349.8,144.5a7.422,7.422,0,0,0,2.432,2.819,14.067,14.067,0,0,0,2.9,1.464,19.744,19.744,0,0,0,2.444.781c1.144.268,2.306.466,3.466.655.664.109,1.341.142,2.065.214-.033-.49-.044-.913-.094-1.332-.193-1.644-.355-3.294-.617-4.928a24.5,24.5,0,0,0-.754-3.15,18.932,18.932,0,0,0-2.117-4.857,15.542,15.542,0,0,0-1.732-2.265l0,0-.028-.029-.052-.054c-.04-.041-.082-.083-.13-.131-.173-.175-.35-.346-.534-.508a.036.036,0,0,0-.007.009c-.227-.2-.466-.4-.684-.569l.006,0c-.049-.037-.1-.07-.147-.105l-.019-.014c-.062-.046-.124-.091-.186-.134l-.01-.007h0a5.612,5.612,0,0,0-2.589-1.025,4.16,4.16,0,0,0-.442-.024,3.314,3.314,0,0,0-1.942.6" transform="translate(-348.601 -131.3)"/></clipPath><linearGradient id="t" x1="-4.902" y1="4.95" x2="-4.888" y2="4.95" xlink:href="#r"/><clipPath id="u"><path class="a" d="M479.766,173.517a7.7,7.7,0,0,1-.593.811,15.278,15.278,0,0,1-3.42,2.983c-.769.48-1.551.947-2.339,1.417h0c-.237.142-.717.392-1.406.708h0l-.157.073c-.3.135-.63.281-1,.435-.023,0-.047-.007-.069-.012l-.021.051q-.234.1-.486.2h0a2.017,2.017,0,0,0-.243.1c-.955.382-2.084.8-3.367,1.219a92.47,92.47,0,0,1-8.953,2.325,8.453,8.453,0,0,0,.9.023c1.777-.043,3.554-.065,5.329-.143,1.359-.06,2.719-.156,4.071-.3,1.466-.159,2.934-.337,4.381-.614a27.435,27.435,0,0,0,3.236-.9,11.654,11.654,0,0,0,4.525-2.712.592.592,0,0,0,.17-.377c.011-1.745.008-3.491.007-5.237,0-.073-.011-.146-.017-.215a1.052,1.052,0,0,0-.248-.042c-.132,0-.195.064-.293.214" transform="translate(-457.71 -173.303)"/></clipPath><linearGradient id="v" x1="-4.133" y1="8.16" x2="-4.124" y2="8.16" xlink:href="#r"/><clipPath id="w"><path class="a" d="M304.291,183.885a.53.53,0,0,0,.138.307,10.408,10.408,0,0,0,4.989,3.164c1.132.341,2.3.581,3.459.818a21.381,21.381,0,0,0,2.333.333c1.2.108,2.4.184,3.6.241,1.4.067,2.8.1,4.2.145,0-.03.007-.061.01-.09-.254-.036-.51-.061-.762-.108-1.26-.24-2.528-.449-3.777-.74-1.555-.362-3.111-.738-4.635-1.21a17.855,17.855,0,0,1-4.373-2.038,13.553,13.553,0,0,1-4.364-4.491c-.274-.455-.525-.924-.826-1.454,0,1.763,0,3.443.007,5.123" transform="translate(-304.284 -178.762)"/></clipPath><linearGradient id="x" x1="-3.32" y1="8.391" x2="-3.309" y2="8.391" xlink:href="#r"/></defs><g transform="translate(-143.819 -94.475)"><path class="b" d="M434.777,314.38v-9.592h6.588v1.587h-4.383v2.263h4.083V310.2h-4.083v4.181Z" transform="translate(-231.61 -167.415)"/><path class="b" d="M471.7,308.977a4.812,4.812,0,0,1,1.323-3.58,5.575,5.575,0,0,1,7.181,0,4.828,4.828,0,0,1,1.315,3.58,5.042,5.042,0,0,1-1.3,3.678,5.565,5.565,0,0,1-7.216,0,5.022,5.022,0,0,1-1.305-3.681m2.3.013a4.465,4.465,0,0,0,.664,2.656,2.535,2.535,0,0,0,3.887,0,4.465,4.465,0,0,0,.663-2.656,4.338,4.338,0,0,0-.67-2.617,2.53,2.53,0,0,0-3.873,0,4.341,4.341,0,0,0-.67,2.614" transform="translate(-260.998 -166.856)"/><path class="b" d="M527.945,314.381v-9.592h4.278a4.7,4.7,0,0,1,2.638.585,2.07,2.07,0,0,1,.845,1.827,2.372,2.372,0,0,1-.475,1.58,2.7,2.7,0,0,1-1.521.793,1.958,1.958,0,0,1,1.232.478,2.321,2.321,0,0,1,.513,1.33l.182,1.385a6.015,6.015,0,0,0,.209.969,2.1,2.1,0,0,0,.321.644H533.78a1.945,1.945,0,0,1-.178-.462,4.777,4.777,0,0,1-.108-.709l-.147-1.45a1.827,1.827,0,0,0-.3-1.06,1.862,1.862,0,0,0-1.044-.182h-1.9v3.863Zm2.164-5.423h1.3a3.346,3.346,0,0,0,1.675-.293,1.121,1.121,0,0,0,.454-1.021,1.218,1.218,0,0,0-.43-1.073,3.269,3.269,0,0,0-1.7-.3h-1.3Z" transform="translate(-305.774 -167.415)"/><path class="b" d="M152.311,247.987v4.327a6.869,6.869,0,0,1-1.643.571,9.293,9.293,0,0,1-1.944.188,5.061,5.061,0,0,1-3.625-1.213,4.515,4.515,0,0,1-1.28-3.44,4.9,4.9,0,0,1,1.286-3.6,4.79,4.79,0,0,1,3.569-1.3,4.233,4.233,0,0,1,2.674.771,2.485,2.485,0,0,1,.988,2.064v.169h-1.863a1.782,1.782,0,0,0-.527-1.3,1.986,1.986,0,0,0-1.386-.445,2.369,2.369,0,0,0-1.991.959,4.232,4.232,0,0,0-.731,2.622,3.543,3.543,0,0,0,.768,2.471,2.909,2.909,0,0,0,2.261.841,6.234,6.234,0,0,0,.768-.047,5.868,5.868,0,0,0,.743-.141l.007-2.019h-1.762v-1.474Z" transform="translate(0 -118.64)"/><path class="b" d="M193.753,244.251h1.969v5.833a2.081,2.081,0,0,0,.511,1.537,2.119,2.119,0,0,0,1.552.508,2,2,0,0,0,1.521-.517,2.3,2.3,0,0,0,.486-1.615v-5.745h1.9v5.695a3.632,3.632,0,0,1-.982,2.784,5.371,5.371,0,0,1-5.986.01,3.647,3.647,0,0,1-.972-2.794Z" transform="translate(-39.749 -119.225)"/><path class="b" d="M235.969,253.5l3.355-9.251h2.333l3.224,9.251h-2.013l-.658-1.988h-3.656l-.721,1.988ZM239.055,250h2.672l-1.273-3.92Z" transform="translate(-73.354 -119.225)"/><path class="b" d="M284.272,253.5v-9.251h3.845a3.994,3.994,0,0,1,2.371.565,2.052,2.052,0,0,1,.759,1.762,2.052,2.052,0,0,1-1.794,2.289,1.694,1.694,0,0,1,1.107.461,2.325,2.325,0,0,1,.461,1.282l.163,1.336a6.169,6.169,0,0,0,.188.934,2.089,2.089,0,0,0,.288.621h-2.145a1.944,1.944,0,0,1-.16-.445,4.922,4.922,0,0,1-.1-.684l-.132-1.4a1.854,1.854,0,0,0-.267-1.022,1.581,1.581,0,0,0-.938-.175h-1.706V253.5Zm1.944-5.231h1.166a2.833,2.833,0,0,0,1.505-.282A1.112,1.112,0,0,0,289.3,247a1.217,1.217,0,0,0-.386-1.035,2.768,2.768,0,0,0-1.527-.288h-1.166Z" transform="translate(-111.804 -119.225)"/><path class="b" d="M321.631,253.5l3.355-9.251h2.333l3.224,9.251H328.53l-.658-1.988h-3.656l-.721,1.988ZM324.717,250h2.672l-1.273-3.92Z" transform="translate(-141.543 -119.225)"/><path class="b" d="M369.935,253.5V244.25h2.853l3.481,7.438V244.25h1.775V253.5H375.3l-3.593-7.658V253.5Z" transform="translate(-179.994 -119.225)"/><path class="b" d="M417.517,253.5v-7.746h-2.722V244.25h7.432v1.506h-2.722V253.5Z" transform="translate(-215.704 -119.225)"/><path class="b" d="M456.4,253.5V244.25h6.134v1.531H458.4v2.183h3.87v1.505H458.4v2.49h4.271V253.5Z" transform="translate(-248.82 -119.225)"/><path class="b" d="M494.185,253.5V244.25h6.134v1.531h-4.127v2.183h3.87v1.505h-3.87v2.49h4.271V253.5Z" transform="translate(-278.9 -119.225)"/><path class="b" d="M531.912,253.5V244.25H534.8a7.693,7.693,0,0,1,1.863.182,4.108,4.108,0,0,1,1.3.59,3.756,3.756,0,0,1,1.292,1.577,5.577,5.577,0,0,1,.439,2.292,4.509,4.509,0,0,1-1.239,3.44,5.135,5.135,0,0,1-3.653,1.17Zm1.969-1.53h1a2.693,2.693,0,0,0,2.1-.74,3.4,3.4,0,0,0,.668-2.327,3.533,3.533,0,0,0-.668-2.38,2.661,2.661,0,0,0-2.1-.756h-1Z" transform="translate(-308.932 -119.225)"/><path class="b" d="M147.051,444.378h-.3l.906-2.132h.305l.856,2.132h-.332l-.213-.551h-.989Zm1.138-.793-.392-1.051-.413,1.051Z" transform="translate(-2.337 -276.835)"/><path class="b" d="M162.242,444.378v-2.133h.406l1.009,1.739v-1.739h.257v2.133h-.35l-1.06-1.809v1.809Z" transform="translate(-14.665 -276.834)"/><path class="b" d="M172.427,446.056a.835.835,0,0,1,.2-.589.7.7,0,0,1,.541-.216.711.711,0,0,1,.539.2.784.784,0,0,1,.192.563.808.808,0,0,1-.2.582.735.735,0,0,1-.559.208.688.688,0,0,1-.523-.2.765.765,0,0,1-.192-.549m.74-.609a.4.4,0,0,0-.335.16.692.692,0,0,0-.124.434.636.636,0,0,0,.119.412.452.452,0,0,0,.671-.009.806.806,0,0,0,0-.848.4.4,0,0,0-.336-.149" transform="translate(-22.773 -279.227)"/><path class="b" d="M181.822,445.589a.388.388,0,0,1,.176-.19.584.584,0,0,1,.29-.07.67.67,0,0,1,.269.053.466.466,0,0,1,.192.147.325.325,0,0,1,.056.126,1.287,1.287,0,0,1,.017.253v.924h-.273v-.938a.4.4,0,0,0-.08-.276.324.324,0,0,0-.251-.089.425.425,0,0,0-.284.094.306.306,0,0,0-.111.243v.966h-.275v-1.181c0-.055,0-.107,0-.158s0-.1-.009-.147h.277Z" transform="translate(-30.024 -279.289)"/><rect class="b" width="0.703" height="0.249" transform="translate(153.163 166.677)"/><path class="b" d="M194.96,444.378v-2.133h.282v1.878h.97v.254Z" transform="translate(-40.71 -276.834)"/><path class="b" d="M202.873,442.548h-.321v-.3h.321Zm-.3.344h.275v1.486h-.275Z" transform="translate(-46.753 -276.835)"/><path class="b" d="M206.559,445.589a.387.387,0,0,1,.176-.19.583.583,0,0,1,.29-.07.671.671,0,0,1,.27.053.466.466,0,0,1,.192.147.328.328,0,0,1,.056.126,1.306,1.306,0,0,1,.017.253v.924h-.273v-.938a.4.4,0,0,0-.08-.276.324.324,0,0,0-.251-.089.425.425,0,0,0-.284.094.306.306,0,0,0-.111.243v.966h-.275v-1.181q0-.082,0-.158c0-.051,0-.1-.009-.147h.278Z" transform="translate(-49.715 -279.289)"/><path class="b" d="M215.066,444.378h-.275v-2.133h.275V443.5l.562-.61h.335l-.619.642.662.847h-.337l-.6-.8Z" transform="translate(-56.496 -276.834)"/><path class="b" d="M222.86,446.282a.472.472,0,0,1-.165.372.646.646,0,0,1-.435.141.687.687,0,0,1-.526-.191.787.787,0,0,1-.18-.559.9.9,0,0,1,.177-.6.629.629,0,0,1,.507-.208.643.643,0,0,1,.476.173.634.634,0,0,1,.174.471c0,.048,0,.085,0,.11s0,.049,0,.07h-1.054v.089a.456.456,0,0,0,.108.326.4.4,0,0,0,.306.115.384.384,0,0,0,.26-.083.29.29,0,0,0,.1-.225Zm-1.018-.413h.766v-.033a.43.43,0,0,0-.1-.3.338.338,0,0,0-.264-.114.373.373,0,0,0-.289.123.462.462,0,0,0-.111.323" transform="translate(-61.879 -279.215)"/><path class="b" d="M230.684,444.378l-.012-.22a.693.693,0,0,1-.216.2.544.544,0,0,1-.261.06.606.606,0,0,1-.484-.205.833.833,0,0,1-.177-.563.862.862,0,0,1,.173-.572.591.591,0,0,1,.479-.206.6.6,0,0,1,.276.062.578.578,0,0,1,.21.186v-.872h.272v1.836c0,.052,0,.1,0,.151s.007.1.013.146Zm-.865-.761a.77.77,0,0,0,.116.45.358.358,0,0,0,.307.166.372.372,0,0,0,.312-.154.67.67,0,0,0,.117-.415.775.775,0,0,0-.116-.45.358.358,0,0,0-.308-.166.372.372,0,0,0-.312.154.67.67,0,0,0-.117.415" transform="translate(-68.232 -276.834)"/><path class="b" d="M242.8,444.378v-2.133h.406l1.009,1.739v-1.739h.257v2.133h-.35l-1.06-1.809v1.809Z" transform="translate(-78.794 -276.834)"/><path class="b" d="M252.989,446.056a.835.835,0,0,1,.2-.589.7.7,0,0,1,.541-.216.711.711,0,0,1,.539.2.784.784,0,0,1,.192.563.808.808,0,0,1-.2.582.735.735,0,0,1-.559.208.688.688,0,0,1-.523-.2.765.765,0,0,1-.192-.549m.74-.609a.4.4,0,0,0-.335.16.693.693,0,0,0-.124.434.636.636,0,0,0,.118.412.452.452,0,0,0,.671-.009.806.806,0,0,0,0-.848.4.4,0,0,0-.336-.149" transform="translate(-86.902 -279.227)"/><path class="b" d="M262.384,445.589a.388.388,0,0,1,.176-.19.584.584,0,0,1,.29-.07.67.67,0,0,1,.27.053.466.466,0,0,1,.192.147.325.325,0,0,1,.056.126,1.285,1.285,0,0,1,.017.253v.924h-.273v-.938a.4.4,0,0,0-.08-.276.324.324,0,0,0-.251-.089.425.425,0,0,0-.284.094.306.306,0,0,0-.111.243v.966h-.275v-1.181c0-.055,0-.107,0-.158s-.005-.1-.009-.147h.277Z" transform="translate(-94.153 -279.289)"/><rect class="b" width="0.702" height="0.249" transform="translate(169.596 166.677)"/><path class="b" d="M275.522,444.378v-2.133h.743a.8.8,0,0,1,.523.146.544.544,0,0,1,.173.441.535.535,0,0,1-.2.463,1.08,1.08,0,0,1-.632.147h-.32v.935Zm.7-1.2a.554.554,0,0,0,.339-.08.312.312,0,0,0,.1-.261.321.321,0,0,0-.1-.266.552.552,0,0,0-.34-.081h-.411v.688Z" transform="translate(-104.839 -276.834)"/><path class="b" d="M284.914,446.759h-.246a1.392,1.392,0,0,1-.029-.225v-.009a.409.409,0,0,1-.178.2.6.6,0,0,1-.3.069.519.519,0,0,1-.361-.123.418.418,0,0,1-.136-.325.44.44,0,0,1,.188-.374.85.85,0,0,1,.513-.138h.259v-.181a.222.222,0,0,0-.074-.182.336.336,0,0,0-.219-.061.324.324,0,0,0-.217.068.242.242,0,0,0-.085.186h-.263v-.023a.353.353,0,0,1,.141-.3.671.671,0,0,1,.405-.1.729.729,0,0,1,.448.109.422.422,0,0,1,.139.353v.918c0,.012,0,.031,0,.057s.006.054.011.084m-.289-.737h-.231a.586.586,0,0,0-.33.079.251.251,0,0,0-.117.221.232.232,0,0,0,.079.18.29.29,0,0,0,.2.072.4.4,0,0,0,.295-.1.408.408,0,0,0,.1-.3Z" transform="translate(-111.321 -279.215)"/><path class="b" d="M291.847,446.9v-1.252c0-.049,0-.092,0-.128s0-.071-.007-.107h.275l.006.285a.369.369,0,0,1,.145-.214.473.473,0,0,1,.273-.071c.02,0,.04,0,.059,0a.382.382,0,0,1,.054.008v.256c-.03-.006-.058-.01-.082-.013a.553.553,0,0,0-.066,0,.373.373,0,0,0-.283.1.414.414,0,0,0-.1.3v.836Z" transform="translate(-117.827 -279.357)"/><path class="b" d="M296.289,443.864h.253v-.305l.272-.092v.4h.331v.2h-.331v.912a.217.217,0,0,0,.038.153.223.223,0,0,0,.151.037.383.383,0,0,0,.062-.005c.022,0,.047-.008.074-.015v.207c-.044.011-.084.02-.12.026a.535.535,0,0,1-.1.01.466.466,0,0,1-.3-.072.3.3,0,0,1-.086-.243v-1.009h-.253Z" transform="translate(-121.37 -277.806)"/><path class="b" d="M302.1,442.548h-.321v-.3h.321Zm-.3.344h.275v1.486H301.8Z" transform="translate(-125.738 -276.835)"/><path class="b" d="M306.312,446.259a.571.571,0,0,1-.166.4.586.586,0,0,1-.414.138.618.618,0,0,1-.489-.194.807.807,0,0,1-.172-.553.9.9,0,0,1,.18-.6.62.62,0,0,1,.5-.214.572.572,0,0,1,.4.135.466.466,0,0,1,.149.362v.006h-.266a.3.3,0,0,0-.087-.222.288.288,0,0,0-.216-.089.316.316,0,0,0-.275.148.713.713,0,0,0-.1.405.88.88,0,0,0,.093.452.334.334,0,0,0,.507.063.337.337,0,0,0,.09-.239Z" transform="translate(-128.361 -279.215)"/><path class="b" d="M313.218,442.548H312.9v-.3h.321Zm-.3.344h.275v1.486h-.275Z" transform="translate(-134.59 -276.835)"/><path class="b" d="M316.544,447.322v-1.755q0-.075,0-.147t-.014-.147h.279l.012.222a.562.562,0,0,1,.2-.194.578.578,0,0,1,.277-.064.6.6,0,0,1,.481.2.857.857,0,0,1,.173.569.868.868,0,0,1-.167.573.659.659,0,0,1-.755.135.586.586,0,0,1-.211-.187v.791Zm.272-1.336a.771.771,0,0,0,.116.449.359.359,0,0,0,.307.167.372.372,0,0,0,.312-.155.672.672,0,0,0,.117-.416.771.771,0,0,0-.115-.448.358.358,0,0,0-.309-.165.372.372,0,0,0-.311.154.664.664,0,0,0-.118.414" transform="translate(-137.478 -279.215)"/><path class="b" d="M326.081,446.759h-.246a1.393,1.393,0,0,1-.029-.225v-.009a.409.409,0,0,1-.178.2.6.6,0,0,1-.3.069.519.519,0,0,1-.361-.123.418.418,0,0,1-.136-.325.44.44,0,0,1,.188-.374.85.85,0,0,1,.513-.138h.259v-.181a.222.222,0,0,0-.074-.182.336.336,0,0,0-.219-.061.325.325,0,0,0-.217.068.242.242,0,0,0-.085.186h-.263v-.023a.353.353,0,0,1,.141-.3.671.671,0,0,1,.406-.1.729.729,0,0,1,.448.109.422.422,0,0,1,.14.353v.918c0,.012,0,.031,0,.057s.006.054.011.084m-.289-.737h-.231a.586.586,0,0,0-.33.079.251.251,0,0,0-.117.221.232.232,0,0,0,.079.18.29.29,0,0,0,.2.072.4.4,0,0,0,.295-.1.408.408,0,0,0,.1-.3Z" transform="translate(-144.091 -279.215)"/><path class="b" d="M332.083,443.864h.253v-.305l.271-.092v.4h.331v.2h-.331v.912a.217.217,0,0,0,.039.153.223.223,0,0,0,.151.037.385.385,0,0,0,.063-.005c.022,0,.047-.008.073-.015v.207c-.044.011-.084.02-.12.026a.538.538,0,0,1-.1.01.465.465,0,0,1-.3-.072.3.3,0,0,1-.086-.243v-1.009h-.253Z" transform="translate(-149.863 -277.806)"/><path class="b" d="M337.891,442.548h-.321v-.3h.321Zm-.3.344h.275v1.486h-.275Z" transform="translate(-154.231 -276.835)"/><path class="b" d="M341.577,445.589a.387.387,0,0,1,.176-.19.583.583,0,0,1,.29-.07.671.671,0,0,1,.27.053.466.466,0,0,1,.192.147.328.328,0,0,1,.056.126,1.306,1.306,0,0,1,.017.253v.924H342.3v-.938a.4.4,0,0,0-.08-.276.324.324,0,0,0-.251-.089.425.425,0,0,0-.284.094.306.306,0,0,0-.111.243v.966H341.3v-1.181q0-.082,0-.158c0-.051,0-.1-.009-.147h.278Z" transform="translate(-157.193 -279.289)"/><path class="b" d="M350.519,446.489a.355.355,0,0,1-.172.151.608.608,0,0,1-.269.063.614.614,0,0,1-.481-.186.782.782,0,0,1-.167-.539.774.774,0,0,1,.172-.529.584.584,0,0,1,.463-.2.692.692,0,0,1,.291.054.417.417,0,0,1,.185.162l.01-.183h.258c0,.042-.007.084-.009.124s0,.086,0,.139v1.175a.631.631,0,0,1-.165.485.758.758,0,0,1-.525.153.711.711,0,0,1-.455-.119.47.47,0,0,1-.145-.378h.3a.3.3,0,0,0,.086.226.35.35,0,0,0,.246.078.394.394,0,0,0,.293-.1.42.42,0,0,0,.094-.3Zm.033-.526a.592.592,0,0,0-.115-.382.373.373,0,0,0-.306-.143.356.356,0,0,0-.3.153.686.686,0,0,0-.113.416.591.591,0,0,0,.114.382.374.374,0,0,0,.307.141.357.357,0,0,0,.3-.153.681.681,0,0,0,.114-.415" transform="translate(-163.671 -279.227)"/><path class="b" d="M362.533,444.378v-2.133h.282v1.878h.97v.254Z" transform="translate(-174.102 -276.834)"/><path class="b" d="M370.445,442.548h-.321v-.3h.321Zm-.3.344h.275v1.486h-.275Z" transform="translate(-180.145 -276.835)"/><path class="b" d="M372.941,442.957h-.272v-.2h.272v-.237a.473.473,0,0,1,.1-.334.4.4,0,0,1,.309-.11c.034,0,.072,0,.113.007s.086.011.135.021v.218c-.054-.013-.094-.022-.119-.027a.393.393,0,0,0-.067-.006.181.181,0,0,0-.148.061.269.269,0,0,0-.05.176v.232h.342v.2h-.342v1.285h-.276Z" transform="translate(-182.17 -276.698)"/><path class="b" d="M379.227,446.282a.472.472,0,0,1-.165.372.644.644,0,0,1-.434.141.689.689,0,0,1-.526-.191.789.789,0,0,1-.179-.559.9.9,0,0,1,.177-.6.629.629,0,0,1,.506-.208.643.643,0,0,1,.476.173.634.634,0,0,1,.173.471c0,.048,0,.085,0,.11s0,.049,0,.07h-1.054v.089a.457.457,0,0,0,.108.326.4.4,0,0,0,.306.115.385.385,0,0,0,.26-.083.29.29,0,0,0,.1-.225Zm-1.018-.413h.766v-.033a.43.43,0,0,0-.1-.3.339.339,0,0,0-.264-.114.373.373,0,0,0-.289.123.463.463,0,0,0-.111.323" transform="translate(-186.351 -279.215)"/><rect class="b" width="0.285" height="2.133" transform="translate(194.119 165.411)"/><path class="b" d="M394.439,445.589a.385.385,0,0,1,.176-.19.582.582,0,0,1,.29-.07.671.671,0,0,1,.269.053.464.464,0,0,1,.192.147.331.331,0,0,1,.056.126,1.327,1.327,0,0,1,.016.253v.924h-.273v-.938a.4.4,0,0,0-.08-.276.324.324,0,0,0-.251-.089.425.425,0,0,0-.284.094.3.3,0,0,0-.11.243v.966h-.275v-1.181c0-.055,0-.107,0-.158s0-.1-.009-.147h.278Z" transform="translate(-199.271 -279.289)"/><path class="b" d="M403.426,444.378l-.012-.22a.688.688,0,0,1-.216.2.542.542,0,0,1-.261.06.606.606,0,0,1-.484-.205.831.831,0,0,1-.177-.563.862.862,0,0,1,.173-.572.59.59,0,0,1,.479-.206.6.6,0,0,1,.275.062.576.576,0,0,1,.21.186v-.872h.272v1.836c0,.052,0,.1,0,.151s.008.1.013.146Zm-.864-.761a.768.768,0,0,0,.116.45.358.358,0,0,0,.307.166.372.372,0,0,0,.313-.154.671.671,0,0,0,.117-.415.773.773,0,0,0-.116-.45.357.357,0,0,0-.308-.166.372.372,0,0,0-.312.154.67.67,0,0,0-.117.415" transform="translate(-205.739 -276.834)"/><path class="b" d="M411.654,442.548h-.321v-.3h.321Zm-.3.344h.275v1.486h-.275Z" transform="translate(-212.948 -276.835)"/><path class="b" d="M414.776,446.9l-.607-1.486h.277l.474,1.178.48-1.178h.272l-.627,1.486Z" transform="translate(-215.205 -279.357)"/><path class="b" d="M423.165,442.548h-.321v-.3h.321Zm-.3.344h.275v1.486h-.275Z" transform="translate(-222.111 -276.835)"/><path class="b" d="M427.305,444.378l-.012-.22a.69.69,0,0,1-.216.2.542.542,0,0,1-.261.06.607.607,0,0,1-.484-.205.832.832,0,0,1-.177-.563.862.862,0,0,1,.173-.572.591.591,0,0,1,.479-.206.6.6,0,0,1,.275.062.576.576,0,0,1,.21.186v-.872h.272v1.836c0,.052,0,.1,0,.151s.007.1.013.146Zm-.864-.761a.769.769,0,0,0,.116.45.358.358,0,0,0,.307.166.372.372,0,0,0,.313-.154.67.67,0,0,0,.117-.415.775.775,0,0,0-.116-.45.358.358,0,0,0-.308-.166.371.371,0,0,0-.312.154.67.67,0,0,0-.117.415" transform="translate(-224.747 -276.834)"/><path class="b" d="M436.3,446.667a.4.4,0,0,1-.177.192.579.579,0,0,1-.292.072.648.648,0,0,1-.266-.054.477.477,0,0,1-.193-.15.313.313,0,0,1-.054-.126,1.318,1.318,0,0,1-.016-.253v-.932h.272v.95a.4.4,0,0,0,.081.276.323.323,0,0,0,.25.088.419.419,0,0,0,.284-.1.308.308,0,0,0,.111-.244v-.974h.275v1.193c0,.059,0,.112,0,.16s.005.092.01.133h-.279Z" transform="translate(-232.032 -279.357)"/><path class="b" d="M444.564,446.759h-.246a1.339,1.339,0,0,1-.029-.225v-.009a.412.412,0,0,1-.179.2.6.6,0,0,1-.3.069.521.521,0,0,1-.362-.123.418.418,0,0,1-.136-.325.44.44,0,0,1,.188-.374.851.851,0,0,1,.513-.138h.259v-.181a.222.222,0,0,0-.075-.182.335.335,0,0,0-.219-.061.326.326,0,0,0-.218.068.242.242,0,0,0-.084.186h-.263v-.023a.354.354,0,0,1,.141-.3.673.673,0,0,1,.405-.1.73.73,0,0,1,.448.109.422.422,0,0,1,.14.353v.918c0,.012,0,.031,0,.057s.006.054.011.084m-.289-.737h-.231a.586.586,0,0,0-.33.079.252.252,0,0,0-.117.221.231.231,0,0,0,.079.18.29.29,0,0,0,.2.072.4.4,0,0,0,.295-.1.409.409,0,0,0,.1-.3Z" transform="translate(-238.406 -279.215)"/><rect class="b" width="0.274" height="2.133" transform="translate(206.593 165.411)"/><path class="b" d="M459.191,443.631a.4.4,0,0,0,.126.307.562.562,0,0,0,.367.1.638.638,0,0,0,.378-.1.314.314,0,0,0,.139-.271q0-.244-.5-.369l-.087-.021-.084-.022a1.609,1.609,0,0,1-.392-.135.456.456,0,0,1-.17-.178.551.551,0,0,1,.154-.69.959.959,0,0,1,.59-.162.86.86,0,0,1,.521.141.455.455,0,0,1,.19.386v.033h-.288a.3.3,0,0,0-.123-.241.545.545,0,0,0-.326-.085.577.577,0,0,0-.348.1.3.3,0,0,0-.129.254c0,.14.16.25.479.33l.1.026a1.358,1.358,0,0,1,.565.242.491.491,0,0,1,.137.371.579.579,0,0,1-.213.477.919.919,0,0,1-.592.172.981.981,0,0,1-.608-.155.57.57,0,0,1-.2-.477v-.029Z" transform="translate(-250.802 -276.711)"/><path class="b" d="M469.435,446.759h-.246a1.36,1.36,0,0,1-.029-.225v-.009a.413.413,0,0,1-.179.2.6.6,0,0,1-.3.069.52.52,0,0,1-.361-.123.418.418,0,0,1-.136-.325.44.44,0,0,1,.188-.374.851.851,0,0,1,.513-.138h.259v-.181a.222.222,0,0,0-.075-.182.334.334,0,0,0-.219-.061.326.326,0,0,0-.218.068.242.242,0,0,0-.084.186h-.263v-.023a.354.354,0,0,1,.141-.3.673.673,0,0,1,.405-.1.731.731,0,0,1,.448.109.422.422,0,0,1,.139.353v.918c0,.012,0,.031,0,.057s.006.054.011.084m-.289-.737h-.231a.585.585,0,0,0-.33.079.252.252,0,0,0-.117.221.231.231,0,0,0,.079.18.29.29,0,0,0,.2.072.4.4,0,0,0,.295-.1.408.408,0,0,0,.1-.3Z" transform="translate(-258.204 -279.215)"/><path class="b" d="M476.138,446.9l-.607-1.486h.277l.474,1.178.48-1.178h.272l-.628,1.486Z" transform="translate(-264.051 -279.357)"/><path class="b" d="M484.527,442.548h-.321v-.3h.321Zm-.3.344h.275v1.486h-.275Z" transform="translate(-270.957 -276.835)"/><path class="b" d="M488.213,445.589a.386.386,0,0,1,.175-.19.583.583,0,0,1,.29-.07.672.672,0,0,1,.27.053.465.465,0,0,1,.191.147.328.328,0,0,1,.056.126,1.344,1.344,0,0,1,.016.253v.924h-.273v-.938a.4.4,0,0,0-.08-.276.324.324,0,0,0-.251-.089.424.424,0,0,0-.284.094.3.3,0,0,0-.111.243v.966h-.275v-1.181q0-.082,0-.158c0-.051,0-.1-.009-.147h.277Z" transform="translate(-273.919 -279.289)"/><path class="b" d="M497.152,446.489a.354.354,0,0,1-.172.151.607.607,0,0,1-.269.063.615.615,0,0,1-.481-.186.924.924,0,0,1,0-1.068.584.584,0,0,1,.463-.2.691.691,0,0,1,.291.054.415.415,0,0,1,.185.162l.01-.183h.257q-.006.063-.009.124c0,.04,0,.086,0,.139v1.175a.631.631,0,0,1-.165.485.758.758,0,0,1-.525.153.709.709,0,0,1-.455-.119.469.469,0,0,1-.145-.378h.295a.3.3,0,0,0,.087.226.349.349,0,0,0,.246.078.393.393,0,0,0,.293-.1.421.421,0,0,0,.094-.3Zm.033-.526a.59.59,0,0,0-.115-.382.372.372,0,0,0-.306-.143.357.357,0,0,0-.3.153.686.686,0,0,0-.113.416.591.591,0,0,0,.114.382.374.374,0,0,0,.307.141.358.358,0,0,0,.3-.153.683.683,0,0,0,.113-.415" transform="translate(-280.394 -279.227)"/><path class="b" d="M504.541,446.324h.275v.006a.243.243,0,0,0,.086.2.337.337,0,0,0,.229.074.363.363,0,0,0,.225-.065.2.2,0,0,0,.086-.169.177.177,0,0,0-.043-.124.265.265,0,0,0-.136-.071l-.315-.074a.605.605,0,0,1-.3-.143.328.328,0,0,1-.1-.244.4.4,0,0,1,.166-.33.7.7,0,0,1,.436-.127.659.659,0,0,1,.395.1.336.336,0,0,1,.145.287c0,.011,0,.02,0,.027a.118.118,0,0,1,0,.016h-.274v-.012a.207.207,0,0,0-.076-.169.319.319,0,0,0-.208-.062.347.347,0,0,0-.212.062.186.186,0,0,0-.084.155.146.146,0,0,0,.051.116.426.426,0,0,0,.167.076l.338.092a.5.5,0,0,1,.259.145.377.377,0,0,1,.084.254.4.4,0,0,1-.161.337.683.683,0,0,1-.434.126.769.769,0,0,1-.456-.108.4.4,0,0,1-.145-.34Z" transform="translate(-287.144 -279.227)"/><path class="b" d="M516.3,444.378v-2.133h.743a.8.8,0,0,1,.523.146.546.546,0,0,1,.173.441.535.535,0,0,1-.2.463,1.081,1.081,0,0,1-.632.147h-.319v.935Zm.7-1.2a.554.554,0,0,0,.339-.08.313.313,0,0,0,.1-.261.321.321,0,0,0-.1-.266.551.551,0,0,0-.34-.081h-.411v.688Z" transform="translate(-296.504 -276.834)"/><path class="b" d="M524.92,446.9v-1.252c0-.049,0-.092,0-.128s0-.071-.007-.107h.275l.006.285a.371.371,0,0,1,.145-.214.473.473,0,0,1,.273-.071l.059,0a.377.377,0,0,1,.054.008v.256c-.03-.006-.057-.01-.082-.013a.55.55,0,0,0-.066,0,.372.372,0,0,0-.283.1.415.415,0,0,0-.1.3v.836Z" transform="translate(-303.359 -279.357)"/><path class="b" d="M529.973,446.056a.836.836,0,0,1,.2-.589.7.7,0,0,1,.542-.216.711.711,0,0,1,.539.2.785.785,0,0,1,.192.563.81.81,0,0,1-.2.582.735.735,0,0,1-.559.208.688.688,0,0,1-.523-.2.763.763,0,0,1-.192-.549m.74-.609a.4.4,0,0,0-.335.16.693.693,0,0,0-.124.434.636.636,0,0,0,.118.412.452.452,0,0,0,.671-.009.805.805,0,0,0,0-.848.4.4,0,0,0-.335-.149" transform="translate(-307.388 -279.227)"/><path class="b" d="M539.818,444.378l-.011-.22a.7.7,0,0,1-.216.2.542.542,0,0,1-.261.06.606.606,0,0,1-.484-.205.833.833,0,0,1-.177-.563.863.863,0,0,1,.173-.572.591.591,0,0,1,.479-.206.6.6,0,0,1,.276.062.577.577,0,0,1,.211.186v-.872h.271v1.836c0,.052,0,.1,0,.151s.007.1.013.146Zm-.865-.761a.772.772,0,0,0,.116.45.359.359,0,0,0,.307.166.372.372,0,0,0,.312-.154.669.669,0,0,0,.117-.415.776.776,0,0,0-.116-.45.359.359,0,0,0-.308-.166.371.371,0,0,0-.312.154.67.67,0,0,0-.117.415" transform="translate(-314.311 -276.834)"/><path class="b" d="M548.818,446.667a.4.4,0,0,1-.177.192.581.581,0,0,1-.292.072.65.65,0,0,1-.266-.054.473.473,0,0,1-.192-.15.316.316,0,0,1-.055-.126,1.37,1.37,0,0,1-.016-.253v-.932h.272v.95a.4.4,0,0,0,.081.276.323.323,0,0,0,.25.088.419.419,0,0,0,.284-.1.308.308,0,0,0,.111-.244v-.974h.275v1.193c0,.059,0,.112,0,.16s.005.092.01.133h-.279Z" transform="translate(-321.595 -279.357)"/><path class="b" d="M557.169,446.259a.571.571,0,0,1-.167.4.585.585,0,0,1-.413.138.619.619,0,0,1-.489-.194.808.808,0,0,1-.172-.553.9.9,0,0,1,.18-.6.62.62,0,0,1,.5-.214.571.571,0,0,1,.4.135.465.465,0,0,1,.149.362v.006h-.266a.305.305,0,0,0-.086-.222.289.289,0,0,0-.215-.089.315.315,0,0,0-.275.148.713.713,0,0,0-.1.405.882.882,0,0,0,.093.452.334.334,0,0,0,.507.063.339.339,0,0,0,.09-.239Z" transform="translate(-328.049 -279.215)"/><path class="b" d="M562.868,443.864h.253v-.305l.272-.092v.4h.331v.2h-.331v.912a.217.217,0,0,0,.038.153.223.223,0,0,0,.151.037.382.382,0,0,0,.062-.005c.022,0,.047-.008.074-.015v.207c-.044.011-.084.02-.12.026a.535.535,0,0,1-.1.01.465.465,0,0,1-.3-.072.3.3,0,0,1-.086-.243v-1.009h-.253Z" transform="translate(-333.574 -277.806)"/><path class="b" d="M150.49,376.947V369.2h-2.95V367.7h8.054V369.2h-2.949v7.745Z" transform="translate(-2.962 -217.491)"/><path class="b" d="M189.79,371.737a4.615,4.615,0,0,1,1.288-3.452,5.47,5.47,0,0,1,6.994,0,4.629,4.629,0,0,1,1.281,3.452,4.833,4.833,0,0,1-1.264,3.546,5.459,5.459,0,0,1-7.028,0,4.817,4.817,0,0,1-1.271-3.55m2.243.012a4.279,4.279,0,0,0,.646,2.562,2.485,2.485,0,0,0,3.786,0,4.28,4.28,0,0,0,.646-2.562,4.154,4.154,0,0,0-.653-2.524,2.479,2.479,0,0,0-3.772,0,4.155,4.155,0,0,0-.652,2.521" transform="translate(-36.594 -216.953)"/><path class="b" d="M244.636,376.947V367.7h3.385l2.1,6.68,2.086-6.68h3.453v9.251h-1.985v-7.821l-2.623,7.821h-1.876l-2.617-7.821v7.821Z" transform="translate(-80.253 -217.491)"/><path class="b" d="M306.611,371.737a4.615,4.615,0,0,1,1.288-3.452,5.47,5.47,0,0,1,6.994,0,4.63,4.63,0,0,1,1.281,3.452,4.832,4.832,0,0,1-1.264,3.546,5.459,5.459,0,0,1-7.028,0,4.816,4.816,0,0,1-1.271-3.55m2.243.012a4.28,4.28,0,0,0,.646,2.562,2.485,2.485,0,0,0,3.786,0,4.28,4.28,0,0,0,.646-2.562,4.154,4.154,0,0,0-.653-2.524,2.479,2.479,0,0,0-3.772,0,4.155,4.155,0,0,0-.653,2.521" transform="translate(-129.587 -216.953)"/><path class="b" d="M361.39,376.947V367.7h4.166a4.609,4.609,0,0,1,2.569.565,1.987,1.987,0,0,1,.822,1.762,2.276,2.276,0,0,1-.462,1.524,2.639,2.639,0,0,1-1.482.765,1.92,1.92,0,0,1,1.2.461,2.225,2.225,0,0,1,.5,1.282l.176,1.336a5.824,5.824,0,0,0,.2.935,2.029,2.029,0,0,0,.313.621h-2.325a1.879,1.879,0,0,1-.173-.445,4.66,4.66,0,0,1-.105-.684l-.142-1.4a1.759,1.759,0,0,0-.289-1.022,1.826,1.826,0,0,0-1.017-.176H363.5v3.725Zm2.107-5.231h1.264a3.285,3.285,0,0,0,1.631-.282,1.076,1.076,0,0,0,.442-.985,1.17,1.17,0,0,0-.418-1.035,3.215,3.215,0,0,0-1.655-.288H363.5Z" transform="translate(-173.192 -217.491)"/><path class="b" d="M406.373,376.947V367.7h4.166a4.607,4.607,0,0,1,2.569.565,1.987,1.987,0,0,1,.822,1.762,2.272,2.272,0,0,1-.462,1.524,2.636,2.636,0,0,1-1.482.765,1.919,1.919,0,0,1,1.2.461,2.219,2.219,0,0,1,.5,1.282l.177,1.336a5.735,5.735,0,0,0,.2.935,2.019,2.019,0,0,0,.312.621h-2.324a1.861,1.861,0,0,1-.173-.445,4.693,4.693,0,0,1-.106-.684l-.143-1.4a1.748,1.748,0,0,0-.289-1.022,1.824,1.824,0,0,0-1.016-.176H408.48v3.725Zm2.107-5.231h1.264a3.288,3.288,0,0,0,1.632-.282,1.077,1.077,0,0,0,.442-.985,1.171,1.171,0,0,0-.418-1.035,3.22,3.22,0,0,0-1.656-.288H408.48Z" transform="translate(-209 -217.491)"/><path class="b" d="M449.79,371.737a4.616,4.616,0,0,1,1.288-3.452,5.47,5.47,0,0,1,6.993,0,4.629,4.629,0,0,1,1.281,3.452,4.831,4.831,0,0,1-1.264,3.546,5.459,5.459,0,0,1-7.028,0,4.816,4.816,0,0,1-1.271-3.55m2.243.012a4.282,4.282,0,0,0,.645,2.562,2.486,2.486,0,0,0,3.786,0,4.283,4.283,0,0,0,.645-2.562,4.154,4.154,0,0,0-.652-2.524,2.48,2.48,0,0,0-3.773,0,4.159,4.159,0,0,0-.652,2.521" transform="translate(-243.561 -216.953)"/><path class="b" d="M500.269,367.7h2.352l1.448,7.194,1.992-7.194h2.426l1.753,7.194,1.584-7.194H513.9l-2.461,9.251H509l-1.808-7.087-1.964,7.087h-2.392Z" transform="translate(-283.743 -217.491)"/><g transform="translate(144.347 137.374)"><g class="c" transform="translate(0 0)"><rect class="d" width="9.256" height="6.732" transform="matrix(0.52, -0.854, 0.854, 0.52, -4.26, 6.999)"/></g></g><g transform="translate(148.222 137.374)"><g class="e" transform="translate(0 0)"><rect class="f" width="8.409" height="9.592"/></g></g><g transform="translate(158.107 137.218)"><g class="g" transform="translate(0 0)"><rect class="h" width="12.905" height="12.636" transform="matrix(0.62, -0.784, 0.784, 0.62, -4.822, 6.098)"/></g></g><g transform="translate(167.439 137.231)"><g class="i" transform="translate(0)"><rect class="j" width="13.457" height="13.354" transform="matrix(0.635, -0.772, 0.772, 0.635, -4.856, 5.905)"/></g></g><g transform="translate(178.144 137.374)"><g class="k" transform="translate(0 0)"><rect class="l" width="10.548" height="9.592"/></g></g><g transform="translate(190.559 137.374)"><g class="m" transform="translate(0 0)"><rect class="n" width="11.53" height="11.159" transform="translate(-4.727 5.609) rotate(-49.879)"/></g></g><g transform="translate(144.411 162.582)"><g class="o" transform="translate(0)"><rect class="p" width="85.789" height="0.375"/></g></g><g transform="translate(175.925 121.611)"><g class="q"><rect class="r" width="54.275" height="0.375"/></g></g><path class="b" d="M145.074,208.261l1.59-5.4h.759l-1.6,5.4Z" transform="translate(-0.999 -86.274)"/><path class="b" d="M161.52,206.615a2.22,2.22,0,0,1-.76,1.06,2.1,2.1,0,0,1-1.236.342,1.825,1.825,0,0,1-1.394-.511,2.075,2.075,0,0,1-.482-1.478,4.258,4.258,0,0,1,.209-1.3,4.8,4.8,0,0,1,.594-1.225,2.59,2.59,0,0,1,.883-.837,2.34,2.34,0,0,1,1.143-.273,1.769,1.769,0,0,1,1.237.4,1.445,1.445,0,0,1,.438,1.125V204H161.4a1.245,1.245,0,0,0-.245-.8.89.89,0,0,0-.7-.262,1.338,1.338,0,0,0-.753.24,2.18,2.18,0,0,0-.636.683,4.364,4.364,0,0,0-.456,1.072,4.108,4.108,0,0,0-.181,1.134,1.527,1.527,0,0,0,.295,1.007,1.031,1.031,0,0,0,.837.352,1.223,1.223,0,0,0,.709-.2,1.389,1.389,0,0,0,.471-.61Z" transform="translate(-11.007 -85.903)"/><path class="b" d="M179.291,208.261l1.59-5.4h.759l-1.6,5.4Z" transform="translate(-28.237 -86.274)"/><path class="b" d="M195.738,206.615a2.22,2.22,0,0,1-.76,1.06,2.1,2.1,0,0,1-1.236.342,1.825,1.825,0,0,1-1.394-.511,2.075,2.075,0,0,1-.482-1.478,4.258,4.258,0,0,1,.209-1.3,4.794,4.794,0,0,1,.594-1.225,2.59,2.59,0,0,1,.883-.837,2.34,2.34,0,0,1,1.143-.273,1.768,1.768,0,0,1,1.236.4,1.444,1.444,0,0,1,.438,1.125V204h-.754a1.247,1.247,0,0,0-.245-.8.89.89,0,0,0-.7-.262,1.338,1.338,0,0,0-.753.24,2.182,2.182,0,0,0-.635.683,4.364,4.364,0,0,0-.456,1.072,4.115,4.115,0,0,0-.181,1.134,1.526,1.526,0,0,0,.295,1.007,1.031,1.031,0,0,0,.837.352,1.224,1.224,0,0,0,.709-.2,1.391,1.391,0,0,0,.471-.61Z" transform="translate(-38.246 -85.903)"/><path class="b" d="M213.509,208.261l1.59-5.4h.759l-1.6,5.4Z" transform="translate(-55.475 -86.274)"/><path class="s" d="M233.7,208.261l1.6-5.4h1.458a2.119,2.119,0,0,1,1.277.3,1.136,1.136,0,0,1,.394.962,1.969,1.969,0,0,1-.156.768,1.758,1.758,0,0,1-.43.625,1.627,1.627,0,0,1-.659.379,3.389,3.389,0,0,1-.975.119h-1.073l-.674,2.249Zm1.619-2.865.909-.008a1.531,1.531,0,0,0,1.063-.341,1.218,1.218,0,0,0,.377-.953.517.517,0,0,0-.242-.469,1.4,1.4,0,0,0-.74-.154h-.8Z" transform="translate(-71.546 -86.275)"/><path class="s" d="M255.953,214.48l.637-2.176q.128-.436.22-.828t.146-.762h.623q-.007.136-.028.308t-.053.417a2.049,2.049,0,0,1,.59-.586,1.285,1.285,0,0,1,.678-.184c.042,0,.085,0,.13.006s.091.009.137.016l-.172.766-.044-.007a2.788,2.788,0,0,0-.3-.026,1.158,1.158,0,0,0-.824.3,2.064,2.064,0,0,0-.509.943l-.535,1.81Z" transform="translate(-89.261 -92.494)"/><path class="s" d="M273.156,210.886l-.667,2.22a3.117,3.117,0,0,0-.073.306,1.418,1.418,0,0,0-.026.251.535.535,0,0,0,.148.4.56.56,0,0,0,.409.145,1.248,1.248,0,0,0,.874-.41,2.388,2.388,0,0,0,.61-1.066l.542-1.847h.711l-.733,2.44q-.041.132-.114.465t-.18.861h-.7l.183-.729a2.412,2.412,0,0,1-.691.581,1.607,1.607,0,0,1-.768.193,1.013,1.013,0,0,1-.729-.255.918.918,0,0,1-.267-.7,1.59,1.59,0,0,1,.031-.288c.021-.111.053-.245.1-.4l.637-2.169Z" transform="translate(-101.786 -92.666)"/><g transform="translate(201.093 94.475)"><g class="t" transform="translate(0 0)"><rect class="u" width="19.028" height="26.609" transform="translate(-0.019 0)"/></g></g><g transform="translate(185.589 101.986)"><g class="v"><rect class="w" width="14.537" height="19.133" transform="translate(-0.033 0)"/></g></g><g transform="translate(207.845 110.554)"><g class="x"><rect class="y" width="22.618" height="10.553" transform="translate(0 0)"/></g></g><g transform="translate(176.55 111.667)"><g class="z" transform="translate(0 0)"><rect class="aa" width="18.738" height="10.131" transform="translate(-0.002 0)"/></g></g></g></svg>