<svg xmlns="http://www.w3.org/2000/svg" xmlns:xlink="http://www.w3.org/1999/xlink" width="62.229" height="37.8" xmlns:v="https://vecta.io/nano"><defs><clipPath ><path d="M490,262h54.126v32.075H490Z" transform="translate(-490 -262)"/></clipPath><linearGradient id="B" x1=".82" y1=".896" x2=".179" y2=".106"><stop offset="0" stop-color="#e77817"/><stop offset=".588" stop-color="#cb5322"/><stop offset="1" stop-color="#ae2e2d"/></linearGradient><linearGradient id="C" x1=".821" y1=".104" x2=".18" y2=".894" xlink:href="#B"/><linearGradient id="D" x1=".909" y1=".209" x2=".091" y2=".788"><stop offset="0" stop-color="#e77817"/><stop offset=".51" stop-color="#cb5322"/><stop offset="1" stop-color="#ae2e2d"/></linearGradient><linearGradient id="E" x1="1.063" y1=".387" x2="-.063" y2=".615" xlink:href="#D"/><linearGradient id="F" x1=".947" y1=".259" x2=".049" y2=".744" xlink:href="#D"/><radialGradient id="G" cx=".54" cy=".63" r="4.58"><stop offset="0" stop-color="#dfa013"/><stop offset=".31" stop-color="#dac23a"/><stop offset=".439" stop-color="#bd9222"/><stop offset=".561" stop-color="#dabc40"/><stop offset=".69" stop-color="#886313"/><stop offset="1" stop-color="#744b0d"/></radialGradient></defs><path d="M9.585 4.467h40.592c1.69.005 3.058 1.373 3.063 3.063v18.537c-.005 1.689-1.373 3.058-3.062 3.063H9.585c-1.69-.005-3.058-1.373-3.063-3.063V7.53c.005-1.69 1.373-3.058 3.063-3.063z" fill="#fefefe"/><path d="M23.027 4.483h26.81a3.43 3.43 0 0 1 3.419 3.419v12.01m-16.513 9.627H10.189A3.43 3.43 0 0 1 6.77 26.12v-11.7" fill="none" stroke="#0f477a"/><path d="M42.363 33.835l-3.559-3.907c-.373-.314-.414-.7-.141-.952l3.857-3.816c.4-.232 1.283.083.911.844l-2.612 2.757 8.939.091a4.14 4.14 0 0 0 2.094-.4 1.44 1.44 0 0 0 .7-1.366v-5.488c.127-.223.364-.361.621-.361s.494.138.621.361v5.488c.063.994-.444 1.937-1.308 2.433-.844.427-1.787.621-2.731.563l-9.138-.1 2.666 2.988c.194.256.162.616-.073.834s-.597.222-.838.01z" fill="url(#B)"/><path d="M17.564.142l3.559 3.907c.372.315.414.7.141.952l-3.857 3.816c-.4.232-1.283-.083-.911-.844l2.607-2.756-8.939-.091a4.14 4.14 0 0 0-2.094.4c-.476.283-.748.814-.7 1.366v5.488c-.127.223-.364.361-.621.361s-.494-.138-.621-.361V6.892c-.063-.994.444-1.938 1.308-2.434a5.33 5.33 0 0 1 2.732-.563l9.138.1-2.665-2.988c-.2-.255-.171-.621.067-.842s.605-.221.844-.002z" fill="url(#C)"/><path fill="none" stroke="#0c4a85" stroke-width=".75" d="M26.661 12.314l19.816.017"/><path d="M13.483 12.512l.679-2.309h.321l-.687 2.309zm2.756-.546c-.06.18-.173.338-.323.455a.89.89 0 0 1-.53.149.81.81 0 0 1-.6-.215c-.149-.174-.223-.4-.207-.629.002-.188.033-.375.091-.554a1.7 1.7 0 0 1 .257-.521 1 1 0 0 1 .869-.472.74.74 0 0 1 .53.174.62.62 0 0 1 .19.48v.041h-.323a.56.56 0 0 0-.108-.348.38.38 0 0 0-.3-.116.59.59 0 0 0-.323.1 1.03 1.03 0 0 0-.273.29c-.083.144-.15.297-.2.455a1.72 1.72 0 0 0-.075.488.65.65 0 0 0 .124.43c.09.101.221.156.356.149a.53.53 0 0 0 .306-.083.58.58 0 0 0 .2-.257h.339zm.232.546l.679-2.309h.323l-.687 2.309zm2.756-.546c-.06.18-.173.338-.323.455a.89.89 0 0 1-.53.149.81.81 0 0 1-.6-.215c-.149-.174-.223-.4-.207-.629.002-.188.033-.375.091-.554a1.7 1.7 0 0 1 .257-.521 1 1 0 0 1 .869-.472.74.74 0 0 1 .53.174.62.62 0 0 1 .19.48v.041h-.323a.56.56 0 0 0-.108-.348.38.38 0 0 0-.3-.116.59.59 0 0 0-.323.1 1.03 1.03 0 0 0-.273.29 2.34 2.34 0 0 0-.2.455 1.88 1.88 0 0 0-.074.488.65.65 0 0 0 .124.43c.09.101.221.156.356.149a.53.53 0 0 0 .306-.083.58.58 0 0 0 .2-.257h.339zm.232.546l.679-2.309h.323l-.687 2.309zm2.458-1.225h.389a.64.64 0 0 0 .455-.149c.112-.105.173-.253.166-.406.006-.08-.032-.157-.1-.2-.097-.05-.206-.072-.315-.066h-.339l-.248.819zm-.7 1.225l.687-2.309h.621a.89.89 0 0 1 .546.133c.121.102.183.257.166.414a.91.91 0 0 1-.066.331.69.69 0 0 1-.182.265.79.79 0 0 1-.281.166 1.45 1.45 0 0 1-.414.05h-.455l-.29.96h-.331zm1.945 0l.273-.927.091-.356.066-.323h.265c0 .041-.008.083-.008.132s-.017.108-.025.182a.8.8 0 0 1 .257-.248.56.56 0 0 1 .29-.074h.058c.017 0 .042.008.058.008l-.074.331h-.017c-.044-.006-.088-.009-.132-.008a.49.49 0 0 0-.356.132.85.85 0 0 0-.215.406l-.232.778h-.3zm2-1.614l-.281.952a1.01 1.01 0 0 0-.033.132.5.5 0 0 0-.008.108c-.003.065.021.127.066.174s.111.063.174.058a.52.52 0 0 0 .372-.174 1.12 1.12 0 0 0 .265-.455l.232-.795h.306l-.315 1.043q-.012.062-.05.2c-.025.091-.05.215-.074.364h-.3l.074-.314c-.083.101-.185.185-.3.248a.66.66 0 0 1-.331.083.43.43 0 0 1-.315-.108.41.41 0 0 1-.116-.3.86.86 0 0 1 .017-.124c.008-.05.025-.108.041-.174l.273-.927h.3zm-10.057 2.93a.66.66 0 0 0-.646.637c0 .339.166.53.48.53a.66.66 0 0 0 .646-.654c.014-.134-.031-.268-.123-.366s-.222-.152-.357-.147zm.24 4.437a1.4 1.4 0 0 1-.555.348c-.058 0-.074-.1-.016-.331l.472-1.945c.116-.48.074-.819-.174-.819-.598.136-1.14.45-1.556.9l.124.224a1.71 1.71 0 0 1 .521-.29c.058 0 .041.083-.008.315l-.422 1.821c-.182.77.008.944.273.944a2.61 2.61 0 0 0 1.5-.944l-.149-.215zm3-1.887h.48c.324.019.646-.065.919-.24.213-.168.331-.429.314-.7a.49.49 0 0 0-.182-.43 1.04 1.04 0 0 0-.6-.133h-.488l-.439 1.515zm-2.4 2.955l1.573-5.463h1.548a7.45 7.45 0 0 1 1.275.074 1.88 1.88 0 0 1 .629.232 1.4 1.4 0 0 1 .464.5 1.45 1.45 0 0 1 .157.687 1.97 1.97 0 0 1-.157.77 2 2 0 0 1-.43.654 1.95 1.95 0 0 1-.8.472 4.24 4.24 0 0 1-1.233.149h-.911l-.555 1.929zm5.281 0l.828-2.889.141-.538.091-.389h1.382l-.2.7a2.94 2.94 0 0 1 .6-.6.97.97 0 0 1 .546-.19 1.48 1.48 0 0 1 .182.017 1.75 1.75 0 0 1 .265.058l-.356 1.167c-.101-.027-.203-.046-.306-.058a1.56 1.56 0 0 0-.273-.016.75.75 0 0 0-.571.224 2.57 2.57 0 0 0-.414.935l-.455 1.589h-1.465zm10.471-2.938h-.745l.257-.869h.728l.157-.555 1.581-.555-.314 1.109h.877l-.248.869h-.877l-.4 1.415-.058.224c-.012.051-.018.104-.017.157-.007.088.035.173.108.223.095.057.205.083.315.075a.71.71 0 0 0 .124-.008q.075-.012.224-.025l-.248.869-.331.041-.323.017a1.95 1.95 0 0 1-1.018-.207c-.218-.14-.344-.387-.331-.646a1.72 1.72 0 0 1 .033-.331l.108-.439.389-1.358zm3.866 1.333c-.017.083-.025.157-.033.224a1.34 1.34 0 0 0-.008.174c-.013.15.035.299.132.414a.51.51 0 0 0 .381.141.59.59 0 0 0 .414-.149.79.79 0 0 0 .224-.43h1.333a1.65 1.65 0 0 1-.687.985 2.41 2.41 0 0 1-1.333.339 1.95 1.95 0 0 1-1.324-.406 1.44 1.44 0 0 1-.472-1.15 2.46 2.46 0 0 1 .637-1.771 2.28 2.28 0 0 1 1.713-.662 1.78 1.78 0 0 1 1.25.406 1.44 1.44 0 0 1 .439 1.134 1.62 1.62 0 0 1-.033.339 3.98 3.98 0 0 1-.091.422h-2.549zm.174-.728h1.25l.025-.174a.85.85 0 0 0 .008-.133.56.56 0 0 0-.124-.389c-.093-.096-.223-.147-.356-.141a.6.6 0 0 0-.455.207 1.77 1.77 0 0 0-.339.629zm6.837.919c-.05.447-.277.855-.629 1.134a2.3 2.3 0 0 1-1.4.381 2.04 2.04 0 0 1-1.349-.4c-.323-.282-.497-.698-.472-1.126a2.46 2.46 0 0 1 .654-1.78c.836-.75 2.051-.902 3.046-.381a.99.99 0 0 1 .455.877 2 2 0 0 1-.033.314v.025H41.48c0-.017.008-.033.008-.066.018-.093.029-.187.033-.281.009-.115-.03-.229-.108-.314-.08-.077-.189-.117-.3-.108-.24 0-.472.2-.679.6s-.317.848-.314 1.3a.77.77 0 0 0 .108.455.38.38 0 0 0 .323.149.49.49 0 0 0 .381-.19c.123-.165.203-.359.232-.563h1.391zm1.358-1.515h-.745l.257-.869h.729l.157-.555 1.581-.555-.314 1.109h.877l-.248.869h-.877l-.4 1.415-.058.224a.63.63 0 0 0-.016.157.25.25 0 0 0 .108.223.53.53 0 0 0 .315.074.72.72 0 0 0 .124-.008q.075-.012.224-.025l-.248.869-.331.041-.323.017a1.95 1.95 0 0 1-1.018-.207c-.218-.14-.344-.387-.331-.646a1.71 1.71 0 0 1 .033-.331l.108-.439.389-1.358z" fill="#084980"/><path d="M26.43 17.652c-.029.701.223 1.385.7 1.9.133.141.521.546.728.588.348.066 2.7-1.1 2.359-4.2-.19 1.647-1.5 3.038-2.806 2.6-.654-.215-.646-.422-.977-.877z" fill="url(#D)"/><path d="M25.579 15.492c-.08.807-.021 1.622.174 2.409a2.99 2.99 0 0 0 1.06 1.614 3.24 3.24 0 0 1-.521-2.641c.273-1.01 1.647-1.432 1.457-1.912a4.72 4.72 0 0 1-2.177.53z" fill="url(#E)"/><path d="M29.418 17.42a2.73 2.73 0 0 0 .563-1.929 4.89 4.89 0 0 1-1.937-.53c-.124.331.745.787.952 1a1.58 1.58 0 0 1 .431 1.457z" fill="url(#F)"/><path d="M13.508 20.326l2.69.091c.024.011.026.018.025.025l-.008.224c0 .017-.008.017-.025.017l-1.01-.033v.017c.157.093.269.245.314.422l.008.074.662.025c.024.011.026.018.025.025l-.008.224c0 .016-.008.016-.025.016l-.637-.025c-.008.248-.2.48-.563.7-.208.111-.436.181-.671.207 0 .008-.008.008-.025.008l1.366 1.672v.017l-.546-.017q-.012 0-1.589-1.937v-.008l.174.008c.613.025.993-.157 1.134-.538.008-.035.014-.071.017-.107V21.4l-1.349-.05c-.017 0-.025-.008-.025-.017l.008-.223c0-.017.008-.017.025-.017l1.341.05a.67.67 0 0 0-.273-.373 1.26 1.26 0 0 0-.555-.157l-.489-.016c-.024-.011-.026-.018-.025-.025l.008-.224c0-.017.008-.017.025-.017z" fill="#744b0d"/><path d="M16.306 22.909h.637a.52.52 0 0 0-.083-.306c-.057-.069-.143-.106-.232-.1-.087-.003-.171.037-.223.107-.062.087-.097.192-.099.299zm1.134.58c-.008.18-.092.349-.232.463a.91.91 0 0 1-.563.166c-.238.014-.471-.076-.637-.248a1.03 1.03 0 0 1-.232-.7c-.018-.266.065-.529.232-.737a.85.85 0 0 1 .662-.257c.233-.016.461.08.613.257.155.207.231.462.215.72v.116h-1.2a.65.65 0 0 0 .091.373.29.29 0 0 0 .257.124.35.35 0 0 0 .215-.066.33.33 0 0 0 .108-.2h.48zm.571-.919h-.356v-.364h.356v-.364l.538-.2v.563h.43v.364h-.439v.911c-.004.057.014.113.05.157.04.039.094.06.149.058a.47.47 0 0 0 .108-.008l.116-.017v.381l-.24.041-.232.017a.48.48 0 0 1-.372-.124c-.087-.115-.128-.257-.116-.4v-1.01zm3.038-.364v1.507a1.4 1.4 0 0 0 .008.19l.008.174h-.513l-.017-.281c-.061.102-.146.187-.248.248a.78.78 0 0 1-.356.074.58.58 0 0 1-.464-.174.82.82 0 0 1-.149-.538v-1.2h.538v1.13a.46.46 0 0 0 .074.3c.059.064.145.098.232.091.093.006.185-.031.248-.1a.4.4 0 0 0 .091-.265v-1.151h.546zm.488 1.862v-1.283l-.008-.306a2.72 2.72 0 0 0-.017-.273h.5l.017.331c.046-.109.124-.201.223-.265.12-.063.254-.094.389-.091h.017v.489c-.033 0-.058-.008-.074-.008h-.041a.51.51 0 0 0-.331.1c-.085.072-.131.179-.124.29v1.01h-.546zm1.44 0v-1.506a1.12 1.12 0 0 0-.008-.166c-.002-.064-.008-.127-.017-.19h.513l.008.281c.058-.104.144-.19.248-.248a.78.78 0 0 1 .356-.074c.17-.014.338.05.455.174a.82.82 0 0 1 .149.538v1.2h-.538v-1.125a.46.46 0 0 0-.074-.3c-.059-.064-.145-.098-.232-.091-.093-.006-.185.031-.248.1a.36.36 0 0 0-.1.265v1.15h-.538zm3.7-.935c-.011.162.027.324.108.464.071.099.185.157.307.157s.236-.059.307-.157a.87.87 0 0 0 .107-.464.8.8 0 0 0-.107-.463c-.071-.099-.185-.157-.306-.157s-.236.059-.307.157a.87.87 0 0 0-.109.466zm-.546 0a.98.98 0 0 1 .265-.712.91.91 0 0 1 .7-.265.91.91 0 0 1 .969.977c.011.263-.085.52-.265.712a.96.96 0 0 1-.7.265.94.94 0 0 1-.7-.265c-.181-.191-.278-.446-.269-.709zm2.376.935v-1.5h-.281v-.373h.281v-.364a.48.48 0 0 1 .141-.373c.124-.092.276-.136.43-.124a.63.63 0 0 1 .116.008 1.53 1.53 0 0 1 .215.025v.373c-.025 0-.05-.008-.066-.008h-.058a.24.24 0 0 0-.182.058.2.2 0 0 0-.058.166v.248h.331v.373h-.331v1.5h-.53zm2.756-1.481h.273a.7.7 0 0 0 .381-.083.42.42 0 0 0 0-.58c-.115-.067-.248-.096-.381-.083h-.273zm-.546 1.481v-2.674h.795c.289-.021.578.045.828.191a.73.73 0 0 1 .256.621.82.82 0 0 1-.232.621 1.01 1.01 0 0 1-.7.207h-.4v1.035h-.555zm2.227 0v-1.283l-.008-.306c-.001-.091-.006-.182-.016-.273h.5l.016.331c.046-.109.124-.201.224-.265.12-.063.254-.094.389-.091h.016v.489c-.033 0-.058-.008-.075-.008h-.041a.51.51 0 0 0-.331.1c-.085.072-.131.179-.124.29v1.01h-.546zm1.879-1.167h.638a.52.52 0 0 0-.083-.306c-.057-.069-.143-.106-.232-.1-.088-.003-.172.037-.224.108-.062.087-.097.19-.1.297zm1.134.58a.63.63 0 0 1-.232.463.91.91 0 0 1-.563.166.82.82 0 0 1-.637-.248 1.03 1.03 0 0 1-.232-.7c-.018-.266.065-.529.232-.737a.85.85 0 0 1 .662-.257c.233-.016.461.08.613.257.155.207.232.462.215.72v.116h-1.2a.65.65 0 0 0 .091.373.29.29 0 0 0 .257.124.35.35 0 0 0 .215-.066.33.33 0 0 0 .108-.2h.48zm.455.587v-1.7l-.008-.174h.513l.017.281a.65.65 0 0 1 .248-.248.78.78 0 0 1 .356-.074c.125-.003.248.029.356.091a.55.55 0 0 1 .215.273.6.6 0 0 1 .24-.273.73.73 0 0 1 .372-.091c.17-.014.337.05.455.174a.82.82 0 0 1 .149.538v1.2h-.538v-1.126a.46.46 0 0 0-.074-.3c-.059-.064-.145-.098-.232-.091-.093-.006-.185.031-.248.1s-.098.168-.091.265v1.15h-.538v-1.126a.46.46 0 0 0-.074-.3c-.059-.064-.145-.098-.232-.091-.093-.006-.185.031-.248.1a.4.4 0 0 0-.091.265v1.15h-.546zm3.385-2.2v-.472h.546v.472zm0 .339h.546v1.862h-.546zm2.756 0v1.507a1.4 1.4 0 0 0 .008.19l.008.174h-.513l-.016-.281c-.061.102-.146.187-.248.248a.78.78 0 0 1-.356.074.58.58 0 0 1-.464-.174.82.82 0 0 1-.149-.538v-1.2h.538v1.129a.46.46 0 0 0 .074.3c.059.064.145.098.232.091.093.006.185-.031.248-.1a.4.4 0 0 0 .091-.265v-1.151h.546zm.5 1.862v-1.7l-.008-.174h.513l.017.281a.65.65 0 0 1 .248-.248.78.78 0 0 1 .356-.074c.125-.003.248.029.356.091a.55.55 0 0 1 .215.273.6.6 0 0 1 .24-.273.73.73 0 0 1 .373-.091c.17-.014.337.05.455.174a.82.82 0 0 1 .149.538v1.2h-.538V22.94a.46.46 0 0 0-.075-.3c-.059-.064-.145-.098-.232-.091-.093-.006-.185.031-.248.1s-.098.168-.091.265v1.15h-.538v-1.126a.46.46 0 0 0-.074-.3c-.059-.064-.145-.098-.232-.091-.093-.006-.185.031-.248.1-.062.074-.094.169-.091.265v1.15h-.546z" fill="url(#G)"/><g fill="#084980"><path d="M.919 37.154c0-.058-.008-.108-.008-.157v-1.333h.207v1.681h-.3l-.646-1.532.017.182c.009.05.008.1.008.132v1.208H0v-1.681h.315l.621 1.49zm.455-.4c-.014-.162.024-.324.108-.463.082-.101.209-.154.339-.141a.38.38 0 0 1 .331.141c.081.143.119.307.108.472.014.165-.024.33-.108.472-.077.103-.202.16-.331.149a.39.39 0 0 1-.339-.149.86.86 0 0 1-.108-.472zm.439-.438a.2.2 0 0 0-.182.1.81.81 0 0 0-.058.339.69.69 0 0 0 .058.339.19.19 0 0 0 .182.1.2.2 0 0 0 .182-.1.8.8 0 0 0 .058-.339c.009-.116-.011-.233-.058-.339-.036-.066-.107-.104-.182-.098zm1.3 1.027v-.745c.006-.08-.008-.159-.041-.232-.036-.044-.092-.069-.149-.066-.071-.005-.138.03-.174.091a.57.57 0 0 0-.058.281v.679h-.2v-1.067c0-.033-.008-.067-.008-.1h.207l.008.132c.033-.052.078-.095.132-.125a.39.39 0 0 1 .174-.041c.086-.009.171.021.232.082s.092.146.083.232v.886h-.207zm.406-.505v-.174h.5v.174zm.728.505v-1.681h.223v1.49h.571v.191zm.985-1.466v-.215h.19v.215zm0 1.466v-1.176h.19v1.176zm1.093 0v-.745c.006-.08-.008-.159-.041-.232-.036-.044-.092-.069-.149-.066-.071-.005-.138.03-.174.091a.57.57 0 0 0-.058.281v.679H5.7v-1.067c0-.033-.008-.067-.008-.1H5.9l.008.132c.033-.052.078-.095.132-.125a.39.39 0 0 1 .174-.041c.086-.009.171.021.232.082s.092.146.083.232v.886h-.205zm.662 0h-.2v-1.681h.2v.977l.356-.463h.223l-.4.488.48.687H7.4l-.414-.629v.621zm.927-.7h.455v-.1c.008-.072-.013-.144-.058-.2a.2.2 0 0 0-.157-.066c-.071-.005-.138.03-.174.091a.49.49 0 0 0-.058.281zm.654.323a.41.41 0 0 1-.124.29.44.44 0 0 1-.3.107.41.41 0 0 1-.339-.141c-.078-.147-.113-.314-.1-.48a.74.74 0 0 1 .108-.455.37.37 0 0 1 .331-.141c.119-.008.236.034.323.116a.55.55 0 0 1 .1.364v.182h-.654v.066c-.009.087.012.174.058.248a.2.2 0 0 0 .174.075.2.2 0 0 0 .149-.058c.041-.047.067-.104.074-.166h.2zm.853-.679v-.638h.207v1.606c-.001.025.001.05.008.074h-.2l-.008-.116a.49.49 0 0 1-.124.107c-.049.024-.103.036-.157.033-.115.008-.225-.046-.29-.141-.073-.14-.104-.298-.091-.456-.009-.165.023-.329.091-.479.061-.101.172-.162.29-.158.055 0 .109.015.157.042a.4.4 0 0 1 .124.116zm-.232.008c-.073-.004-.14.04-.166.108-.042.105-.062.218-.058.331a.92.92 0 0 0 .05.365c.036.066.107.105.182.1.074.002.143-.041.174-.108.039-.112.056-.23.05-.348.008-.119-.011-.238-.058-.348-.036-.066-.106-.107-.182-.107zm2.218.836c0-.059-.008-.108-.008-.158V35.64h.201v1.68h-.3l-.646-1.531.017.182c.009.05.008.1.008.132v1.208h-.2v-1.68h.321l.621 1.489zm.455-.4c-.014-.162.024-.324.108-.463.082-.101.209-.154.339-.141a.38.38 0 0 1 .331.141.84.84 0 0 1 .108.472.8.8 0 0 1-.108.472c-.077.103-.202.16-.331.149a.39.39 0 0 1-.339-.149c-.08-.144-.118-.308-.108-.472zm.439-.438a.2.2 0 0 0-.182.1.81.81 0 0 0-.058.339.69.69 0 0 0 .058.339.19.19 0 0 0 .182.1.2.2 0 0 0 .182-.1.8.8 0 0 0 .058-.339c.009-.116-.011-.233-.058-.339-.037-.065-.109-.102-.183-.095zm1.3 1.026v-.745c.006-.08-.008-.159-.041-.232-.036-.044-.092-.069-.149-.066-.071-.005-.138.03-.174.091a.57.57 0 0 0-.058.281v.679h-.2v-1.068c0-.033-.008-.066-.008-.1h.207l.008.132c.033-.051.079-.094.132-.124s.114-.042.174-.042c.086-.009.171.021.232.082s.092.146.083.232v.886H13.6zm.406-.5v-.174h.5v.174zm.952-.985v.555h.174c.09.011.181-.009.257-.058.05-.063.074-.144.066-.224a.27.27 0 0 0-.058-.207.28.28 0 0 0-.207-.058h-.232zm.24-.19a.49.49 0 0 1 .372.107.47.47 0 0 1 .108.356.5.5 0 0 1-.108.356c-.089.084-.209.126-.331.116h-.281v.753h-.223v-1.681h.455zm.8.811h-.215v-.025c-.006-.091.034-.178.108-.231a.53.53 0 0 1 .315-.083.44.44 0 0 1 .3.083c.07.066.107.16.1.256v.546c-.002.052.001.105.008.157.002.053.008.105.017.157h-.2l-.017-.149a.4.4 0 0 1-.306.157c-.091.004-.179-.033-.24-.1a.34.34 0 0 1-.091-.257c-.009-.118.04-.232.132-.306.116-.074.252-.109.389-.1h.116v-.058a.34.34 0 0 0-.041-.19c-.037-.037-.089-.056-.141-.05a.26.26 0 0 0-.157.042c-.037.034-.058.082-.058.132v.008zm.4.249c-.116-.01-.233.01-.339.058a.2.2 0 0 0-.1.19c-.003.052.015.103.05.141s.081.06.132.058a.21.21 0 0 0 .182-.091.46.46 0 0 0 .066-.265v-.091zm.637-.563l.017.157c.022-.054.059-.1.108-.132.057-.035.123-.052.19-.05h.033v.207h-.05a.3.3 0 0 0-.215.066.31.31 0 0 0-.066.224v.711h-.2v-.977a1.23 1.23 0 0 0-.008-.133c0-.025-.008-.049-.008-.066h.2zm.753-.331v.331h.232v.141h-.232v.7c-.007.047.005.094.033.132.017.025.058.033.108.033.031 0 .061-.002.091-.008h.008v.149c-.033.008-.058.008-.091.016s-.05.008-.074.008a.22.22 0 0 1-.265-.265v-.77h-.174v-.141h.175v-.24l.2-.1zm.422.042v-.215h.19v.215zm0 1.465v-1.175h.19v1.175zm1.1-.4h.2a.43.43 0 0 1-.116.314.48.48 0 0 1-.646-.033.84.84 0 0 1-.108-.472.8.8 0 0 1 .108-.472c.081-.103.209-.156.339-.141a.47.47 0 0 1 .306.1c.076.067.118.164.116.265v.024h-.2c.005-.058-.016-.116-.058-.157s-.093-.062-.149-.058a.2.2 0 0 0-.19.1c-.048.109-.068.228-.058.347a.69.69 0 0 0 .058.339.19.19 0 0 0 .182.1c.059.001.116-.023.157-.066.04-.053.063-.116.066-.182zm.439-1.067v-.215h.19v.215zm0 1.465V36.14h.19v1.175zm.67-.58c-.009.113.011.227.058.331.033.069.105.112.182.108.073.004.14-.04.166-.108.039-.108.056-.224.05-.339a.92.92 0 0 0-.05-.364c-.034-.068-.106-.108-.182-.1-.075-.006-.146.038-.174.108-.041.118-.058.244-.05.369zm-.2 1.027v-1.54a.23.23 0 0 0-.008-.074h.207l.008.116c.031-.046.074-.083.124-.107s.103-.036.157-.033c.115-.008.225.046.29.141a.92.92 0 0 1 .091.456 1.03 1.03 0 0 1-.091.48c-.061.101-.172.161-.29.157a.31.31 0 0 1-.157-.042c-.051-.03-.094-.073-.124-.124v.579h-.207zm1.291-1.308H21.3v-.025c-.006-.091.034-.178.108-.231a.53.53 0 0 1 .315-.083.44.44 0 0 1 .3.083c.07.066.107.16.1.256V37c-.002.052.001.105.008.157.002.053.008.105.017.157h-.2l-.017-.149a.4.4 0 0 1-.306.157c-.091.004-.179-.033-.24-.1a.34.34 0 0 1-.091-.257c-.009-.118.04-.232.132-.306.116-.074.252-.109.389-.1h.116v-.058a.34.34 0 0 0-.041-.19c-.037-.037-.089-.056-.141-.05a.26.26 0 0 0-.157.042c-.037.034-.058.082-.058.132v.008zm.4.249c-.116-.01-.233.01-.339.058a.2.2 0 0 0-.1.19c-.003.052.015.103.05.141s.081.06.132.058a.21.21 0 0 0 .182-.091.46.46 0 0 0 .066-.265v-.091zm.72-.894v.331h.232v.141h-.233v.7c-.007.047.005.094.033.132.017.025.058.033.108.033.031 0 .061-.002.091-.008h.008v.149c-.033.008-.058.008-.091.016s-.05.008-.074.008a.22.22 0 0 1-.265-.265v-.77h-.174v-.141h.174v-.24l.2-.1zm.422.042v-.215h.19v.215zm0 1.465v-1.175h.19v1.175zm1.093 0v-.745c.006-.08-.008-.159-.041-.232-.036-.044-.092-.069-.149-.066-.071-.005-.138.03-.174.091a.57.57 0 0 0-.058.281v.679h-.2v-1.068c0-.033-.008-.066-.008-.1h.207l.008.132c.033-.052.078-.094.132-.124s.114-.042.174-.042c.086-.009.171.021.232.082s.092.146.083.232v.886h-.207zm.629-.587a.83.83 0 0 0 .05.339.2.2 0 0 0 .356 0 .71.71 0 0 0 .058-.339c.009-.122-.011-.244-.058-.356-.037-.065-.105-.106-.18-.107s-.145.036-.184.099a.92.92 0 0 0-.05.364zm-.132.72h.232c-.003.047.016.092.05.124a.17.17 0 0 0 .124.05c.059.007.117-.015.157-.059a.35.35 0 0 0 .041-.215v-.166c-.033.052-.078.094-.132.124a.31.31 0 0 1-.149.042c-.119.007-.234-.049-.3-.149-.122-.3-.122-.636 0-.936a.32.32 0 0 1 .29-.149c.054-.003.108.009.157.033s.093.061.124.107l.008-.116h.207c0 .025-.008.058-.008.091v1.142c.001.056-.005.112-.017.166-.02.095-.089.172-.182.2-.067.022-.137.033-.207.033a.41.41 0 0 1-.281-.083c-.07-.06-.109-.148-.108-.24zm1.647-.133v-1.68h.223v1.68zm1.134 0v-.745c.006-.08-.008-.159-.041-.232-.036-.044-.092-.069-.149-.066-.071-.005-.138.03-.174.091a.57.57 0 0 0-.058.281v.679h-.2v-1.068c0-.033-.008-.066-.008-.1H27l.008.132c.033-.052.078-.094.132-.124s.114-.042.174-.042c.086-.009.171.021.232.082s.092.146.083.232v.886h-.207zm1.084-1.043v-.637h.207v1.605c-.001.025.001.05.008.074h-.2l-.008-.116a.48.48 0 0 1-.124.107c-.049.025-.103.036-.157.034-.115.008-.226-.045-.29-.141-.073-.14-.105-.298-.091-.456a1.03 1.03 0 0 1 .091-.48c.061-.101.172-.161.29-.157.055 0 .109.015.157.042s.091.069.124.116zm-.232.009c-.073-.004-.14.039-.166.107a.82.82 0 0 0-.058.331.92.92 0 0 0 .05.364c.036.066.107.105.182.1.074.002.143-.041.174-.108a.9.9 0 0 0 .05-.347.75.75 0 0 0-.058-.348c-.036-.067-.106-.108-.182-.108zm.72-.431v-.215h.19v.215zm0 1.465v-1.175h.19v1.175zm.728 0l-.364-1.175h.232l.182.679c.017.058.025.116.041.174s.025.116.033.182l.083-.323c.006-.01.008-.021.008-.033l.19-.679h.207l-.364 1.175zm.786-1.465v-.215h.19v.215zm0 1.465v-1.175h.19v1.175zm1.1-1.043v-.637h.207v1.605c-.001.025.001.05.008.074h-.2l-.008-.116a.48.48 0 0 1-.124.107c-.049.025-.103.036-.157.034-.115.008-.226-.045-.29-.141-.073-.14-.105-.298-.091-.456a1.03 1.03 0 0 1 .091-.48c.061-.101.172-.161.29-.157.055 0 .109.015.157.042s.091.069.124.116zm-.232.009c-.073-.004-.14.039-.166.107a.82.82 0 0 0-.058.331.92.92 0 0 0 .05.364c.036.066.107.105.182.1.074.002.143-.041.174-.108a.9.9 0 0 0 .05-.347.75.75 0 0 0-.058-.348c-.036-.067-.106-.108-.182-.108zm.894-.141v.745c-.006.079.008.159.041.231.035.046.091.071.149.066.071.005.138-.03.174-.091a.57.57 0 0 0 .058-.281v-.679h.2V37.2c0 .033.008.066.008.1H32.7l-.008-.141c-.034.054-.083.098-.141.125a.39.39 0 0 1-.174.041c-.086.009-.171-.021-.232-.082s-.092-.146-.083-.232v-.886h.207zm1.084.306h-.215v-.024c-.006-.091.034-.178.108-.232a.53.53 0 0 1 .315-.083c.107-.01.213.02.3.083a.32.32 0 0 1 .1.257v.546c-.002.052.001.105.008.157a1.13 1.13 0 0 0 .017.157h-.2l-.017-.149a.4.4 0 0 1-.306.157c-.091.004-.179-.033-.24-.1a.34.34 0 0 1-.091-.257c-.009-.118.04-.232.132-.306a.64.64 0 0 1 .389-.1h.116v-.058a.34.34 0 0 0-.041-.19.17.17 0 0 0-.141-.05c-.056-.003-.111.011-.157.042-.037.034-.058.082-.058.132v.008zm.4.249a.67.67 0 0 0-.339.058.2.2 0 0 0-.1.19.2.2 0 0 0 .05.141c.033.038.081.06.132.058a.21.21 0 0 0 .182-.091.46.46 0 0 0 .066-.265v-.091zm.654.612h-.2v-1.68h.2zm.844 0v-1.68h.223v1.49h.571v.19zm.985-1.465v-.215h.19v.215zm0 1.465v-1.175h.19v1.175zm.513-1.374v-.075a.4.4 0 0 1 .017-.124c.017-.029.039-.054.066-.075.037-.02.076-.036.116-.05.057-.011.116-.017.174-.017h.05v.157a.26.26 0 0 0-.174.042c-.033.025-.041.091-.041.2v.141h.223v.141h-.223V37.3h-.2v-1.026h-.166v-.141h.166v-.2zm.737.679h.455v-.1c.008-.072-.013-.144-.058-.2a.2.2 0 0 0-.157-.066c-.071-.005-.138.03-.174.091a.49.49 0 0 0-.058.281zm.654.322a.41.41 0 0 1-.124.29c-.083.072-.19.111-.3.107-.129.01-.255-.043-.339-.141-.078-.147-.113-.314-.1-.48a.74.74 0 0 1 .108-.455.37.37 0 0 1 .331-.141c.119-.008.236.034.323.116a.55.55 0 0 1 .1.365v.182h-.654v.066c-.009.087.012.174.058.248a.2.2 0 0 0 .174.075.2.2 0 0 0 .149-.058.31.31 0 0 0 .074-.166h.2zm.8.364v-1.68h.223v1.68zm1.134 0v-.745c.006-.08-.008-.159-.041-.232-.037-.044-.092-.069-.149-.066-.071-.005-.138.03-.174.091a.57.57 0 0 0-.058.281v.679h-.2V36.24c0-.034-.008-.066-.008-.1h.207l.008.132a.37.37 0 0 1 .132-.124c.054-.028.114-.042.174-.042.086-.009.171.021.232.083s.091.147.083.232v.885h-.207zm.414-.356h.223a.25.25 0 0 0 .05.166c.035.04.088.062.141.058.05.001.1-.013.141-.042.034-.028.053-.072.05-.116a.17.17 0 0 0-.041-.1c-.037-.04-.082-.071-.132-.091l-.215-.108c-.063-.031-.119-.073-.166-.124a.23.23 0 0 1-.05-.149c-.001-.092.038-.18.108-.24.087-.064.193-.096.3-.091.101-.007.2.023.281.083a.3.3 0 0 1 .108.232v.016h-.215c.003-.049-.016-.097-.05-.132s-.089-.053-.141-.05a.2.2 0 0 0-.124.042c-.033.026-.051.066-.05.108a.1.1 0 0 0 .025.074.3.3 0 0 0 .091.066l.19.1c.084.037.16.091.223.158.041.051.062.116.058.182.003.099-.039.194-.116.256a.44.44 0 0 1-.306.1c-.111.008-.221-.028-.306-.1-.075-.077-.114-.183-.108-.29zm1.242-.811v.745a.48.48 0 0 0 .041.232c.035.046.091.07.149.066.071.005.138-.03.174-.091.043-.087.063-.184.058-.281v-.679h.2v1.068c0 .033.008.066.008.1h-.207l-.008-.141c-.034.054-.083.097-.141.124s-.114.042-.174.042c-.086.008-.171-.022-.232-.083s-.092-.146-.083-.231v-.886h.207zm1.068 0l.017.157a.28.28 0 0 1 .108-.132c.057-.035.123-.052.19-.05h.033v.207H43.1a.3.3 0 0 0-.215.066c-.05.063-.074.143-.066.223v.712h-.2v-.977c0-.044-.003-.089-.008-.133 0-.024-.008-.049-.008-.066h.2zm.687.306h-.215v-.025a.26.26 0 0 1 .108-.231.53.53 0 0 1 .315-.083.44.44 0 0 1 .3.083.32.32 0 0 1 .1.256v.547a.95.95 0 0 0 .008.157c.002.053.008.105.017.157h-.2l-.017-.149a.4.4 0 0 1-.306.157c-.091.004-.179-.033-.24-.1s-.098-.162-.091-.257c-.009-.118.04-.232.132-.306.116-.074.252-.109.389-.1h.112v-.058a.34.34 0 0 0-.041-.19.17.17 0 0 0-.141-.049c-.055-.004-.11.011-.157.041-.037.034-.058.083-.058.133v.008zm.4.249c-.116-.01-.233.01-.339.058a.2.2 0 0 0-.1.19c-.003.052.015.103.05.141s.081.061.132.059c.073.003.142-.032.182-.092a.46.46 0 0 0 .066-.264v-.091zm1.084.612v-.745c.006-.08-.008-.159-.041-.232-.037-.044-.092-.069-.149-.066-.071-.005-.138.03-.174.091a.57.57 0 0 0-.058.281v.679h-.2V36.24c0-.034-.008-.066-.008-.1h.207l.008.132a.37.37 0 0 1 .132-.124c.054-.028.114-.042.174-.042.086-.009.171.021.232.083s.091.147.083.232v.885h-.207zm1.093-.4h.2a.43.43 0 0 1-.116.314c-.192.155-.471.141-.646-.033-.081-.143-.119-.307-.108-.472-.014-.164.024-.329.108-.471.081-.103.209-.156.339-.141a.47.47 0 0 1 .306.1c.076.067.118.164.116.265v.025h-.2a.2.2 0 0 0-.058-.157c-.038-.041-.093-.062-.149-.058a.2.2 0 0 0-.19.1.71.71 0 0 0-.058.348c-.009.116.01.233.058.339.036.066.107.105.182.1a.21.21 0 0 0 .157-.066.32.32 0 0 0 .066-.182zm.6-.3h.455v-.1a.27.27 0 0 0-.058-.2.2.2 0 0 0-.157-.066c-.071-.005-.138.03-.174.091-.047.086-.067.184-.058.282zm.654.323a.41.41 0 0 1-.124.29c-.083.072-.19.111-.3.107a.41.41 0 0 1-.339-.141.88.88 0 0 1-.1-.48c-.014-.159.024-.319.108-.455a.37.37 0 0 1 .331-.141c.119-.008.236.034.323.116a.55.55 0 0 1 .1.364v.182h-.654v.066c-.009.087.011.175.058.249.085.092.228.1.323.017a.31.31 0 0 0 .074-.166h.2z"/><path d="M48.017 36.865h.24v.033c-.008.082.012.164.058.232.048.053.119.081.19.074a.3.3 0 0 0 .207-.074.25.25 0 0 0 .083-.182c0-.1-.108-.207-.314-.339a.7.7 0 0 1-.066-.042 1.05 1.05 0 0 1-.306-.256.43.43 0 0 1-.066-.24c-.001-.121.05-.236.141-.315.1-.082.227-.123.356-.116a.5.5 0 0 1 .348.116.42.42 0 0 1 .124.331v.042h-.231v-.033c.008-.075-.016-.15-.066-.207-.047-.049-.114-.074-.182-.066a.3.3 0 0 0-.19.066.21.21 0 0 0-.074.166c0 .107.107.231.339.372l.091.058a.85.85 0 0 1 .265.223c.044.063.067.138.066.215.009.13-.039.257-.132.348a.54.54 0 0 1-.381.125.52.52 0 0 1-.364-.116c-.09-.093-.135-.22-.124-.348v-.049zm1.465-.38h-.215v-.025c-.006-.09.034-.178.107-.231a.53.53 0 0 1 .314-.083.44.44 0 0 1 .3.083c.071.066.107.16.1.256v.546a.95.95 0 0 0 .008.157c.002.053.007.105.016.157h-.2l-.017-.149a.4.4 0 0 1-.306.157c-.091.004-.179-.033-.24-.1s-.098-.162-.091-.257c-.009-.118.04-.232.132-.306a.64.64 0 0 1 .389-.1h.116v-.058c.005-.066-.009-.133-.041-.191-.037-.037-.089-.055-.141-.049-.056-.004-.111.011-.157.042-.037.034-.059.082-.059.132v.008zm.4.249a.67.67 0 0 0-.339.058.2.2 0 0 0-.1.19c-.003.052.015.103.05.141s.081.06.132.058a.21.21 0 0 0 .182-.091c.048-.08.071-.172.066-.265v-.091zm.712.612l-.364-1.175h.231l.182.679c.017.058.024.116.041.174a1.11 1.11 0 0 1 .033.182l.083-.322c.005-.01.008-.021.008-.033l.191-.679h.207l-.364 1.175zm.786-1.465v-.215h.19v.215zm0 1.465v-1.175h.19v1.175zm1.093 0v-.745c.006-.08-.008-.159-.041-.232-.037-.044-.092-.069-.149-.066-.071-.005-.138.03-.174.091-.043.088-.063.185-.058.282v.679h-.2v-1.068c0-.033-.008-.066-.008-.1h.207l.008.133c.033-.052.079-.095.133-.125a.39.39 0 0 1 .174-.041c.086-.009.171.022.231.083s.091.146.083.231v.886h-.207zm.629-.588c-.007.116.01.231.05.34a.2.2 0 0 0 .356 0c.047-.107.067-.224.058-.34a.77.77 0 0 0-.058-.356c-.037-.065-.106-.106-.18-.107s-.145.036-.185.099a.94.94 0 0 0-.049.364zm-.132.72h.232c-.003.047.015.093.05.125s.078.051.124.049c.059.007.117-.014.157-.058a.35.35 0 0 0 .041-.215v-.166c-.033.052-.079.094-.132.124-.045.026-.097.041-.149.042-.119.007-.234-.049-.3-.149a.91.91 0 0 1-.091-.48.92.92 0 0 1 .091-.455.32.32 0 0 1 .29-.149c.054-.003.108.009.157.033a.31.31 0 0 1 .124.107l.008-.116h.207c0 .024-.008.058-.008.091v1.143c0 .055-.005.111-.017.165-.019.095-.09.172-.183.2a.67.67 0 0 1-.207.033c-.101.008-.201-.021-.281-.083a.31.31 0 0 1-.108-.24zm1.018-.488h.224c-.004.06.014.119.05.166a.17.17 0 0 0 .141.058c.05.001.1-.013.141-.042.034-.028.053-.072.05-.116-.003-.037-.018-.072-.042-.1a.36.36 0 0 0-.132-.091l-.215-.107c-.063-.031-.119-.073-.166-.124a.23.23 0 0 1-.05-.149c-.001-.092.038-.179.107-.24.087-.063.193-.095.3-.091.101-.007.201.023.282.083a.3.3 0 0 1 .107.232v.017h-.215c.003-.049-.015-.097-.049-.132a.2.2 0 0 0-.141-.05c-.045 0-.089.014-.125.041s-.051.066-.049.108a.1.1 0 0 0 .024.075c.026.027.057.05.091.066l.19.1a.67.67 0 0 1 .224.157c.041.051.062.116.058.182.004.099-.039.194-.116.257a.44.44 0 0 1-.307.1c-.111.008-.221-.028-.306-.1a.39.39 0 0 1-.107-.29zm1.854-1.134v.555h.175a.39.39 0 0 0 .256-.058c.05-.063.074-.144.066-.224.01-.074-.011-.149-.058-.207a.28.28 0 0 0-.207-.058h-.231zm.24-.19a.49.49 0 0 1 .372.107.47.47 0 0 1 .107.356.5.5 0 0 1-.107.356c-.089.083-.209.125-.331.116h-.281v.753h-.224v-1.68h.455zm.836.5l.017.157c.021-.054.059-.101.107-.133.057-.035.123-.052.19-.049h.033v.207h-.05a.3.3 0 0 0-.215.066c-.05.063-.074.144-.066.224v.712h-.2v-.977c0-.044-.003-.088-.008-.132 0-.025-.009-.05-.009-.066h.2zm.463.587c-.014-.162.024-.324.108-.463a.47.47 0 0 1 .67 0 .84.84 0 0 1 .108.472.8.8 0 0 1-.108.472c-.077.103-.203.159-.331.148a.39.39 0 0 1-.339-.148c-.081-.144-.118-.308-.108-.472zm.439-.438a.2.2 0 0 0-.182.1c-.043.108-.063.223-.058.339a.7.7 0 0 0 .058.34.19.19 0 0 0 .182.1.2.2 0 0 0 .182-.1c.044-.108.063-.224.058-.34a.69.69 0 0 0-.058-.339c-.037-.066-.11-.103-.185-.096zm1.3-.017v-.637h.207v1.605c-.001.025.001.051.008.075h-.2l-.008-.116a.48.48 0 0 1-.125.108c-.049.024-.103.036-.157.033-.115.008-.226-.045-.29-.141a.83.83 0 0 1-.091-.455 1.03 1.03 0 0 1 .091-.48c.061-.101.172-.161.29-.157.055 0 .109.015.157.042a.4.4 0 0 1 .125.116zm-.232.008c-.073-.004-.139.039-.166.107-.042.105-.062.218-.058.331-.008.123.009.247.05.364a.19.19 0 0 0 .182.1c.074.002.142-.041.174-.108.039-.112.055-.23.049-.348a.75.75 0 0 0-.058-.348c-.036-.067-.106-.108-.182-.107zm.894-.141v.745a.47.47 0 0 0 .042.232c.035.046.091.071.149.066.07.005.138-.03.173-.091.043-.087.063-.184.058-.281v-.679h.2v1.068c0 .033.008.066.008.1h-.207l-.008-.141c-.034.054-.083.097-.141.124s-.114.042-.174.042c-.086.008-.17-.022-.231-.083s-.091-.145-.083-.231v-.886h.207zm1.523.778h.2a.43.43 0 0 1-.115.314c-.192.156-.471.142-.646-.033a.84.84 0 0 1-.108-.472.79.79 0 0 1 .108-.472c.081-.103.209-.157.339-.141.111-.004.22.032.307.1.075.067.117.164.115.265v.025h-.2a.2.2 0 0 0-.058-.158c-.039-.04-.093-.062-.149-.058a.2.2 0 0 0-.19.1c-.048.109-.068.229-.058.348a.7.7 0 0 0 .058.339.19.19 0 0 0 .183.1c.059.001.116-.023.157-.066.04-.052.063-.116.066-.182zm.688-1.109v.331h.231v.141h-.231v.7c-.006.047.005.094.033.132.017.025.058.033.108.033.031 0 .061-.002.091-.008h.008v.149c-.033.008-.058.008-.091.017s-.05.008-.075.008a.22.22 0 0 1-.265-.265v-.77h-.173v-.141h.173v-.24l.2-.1z"/></g></svg>